<?xml version="1.0" encoding="UTF-8" standalone="no"?>
<!DOCTYPE svg PUBLIC "-//W3C//DTD SVG 1.1//EN"
 "http://www.w3.org/Graphics/SVG/1.1/DTD/svg11.dtd">
<!-- Generated by graphviz version 2.43.0 (0)
 -->
<!-- Title: Factory.H Pages: 1 -->
<svg width="2936pt" height="196pt"
 viewBox="0.00 0.00 2936.00 196.00" xmlns="http://www.w3.org/2000/svg" xmlns:xlink="http://www.w3.org/1999/xlink">
<g id="graph0" class="graph" transform="scale(1 1) rotate(0) translate(4 192)">
<title>Factory.H</title>
<polygon fill="white" stroke="transparent" points="-4,4 -4,-192 2932,-192 2932,4 -4,4"/>
<!-- Node1 -->
<g id="node1" class="node">
<title>Node1</title>
<g id="a_node1"><a xlink:title=" ">
<polygon fill="#bfbfbf" stroke="black" points="1760.5,-168.5 1760.5,-187.5 1821.5,-187.5 1821.5,-168.5 1760.5,-168.5"/>
<text text-anchor="middle" x="1791" y="-175.5" font-family="Helvetica,sans-Serif" font-size="10.00">Factory.H</text>
</a>
</g>
</g>
<!-- Node2 -->
<g id="node2" class="node">
<title>Node2</title>
<g id="a_node2"><a xlink:href="_ext_solver_8_h.html" target="_top" xlink:title=" ">
<polygon fill="white" stroke="black" points="44.5,-112.5 44.5,-131.5 117.5,-131.5 117.5,-112.5 44.5,-112.5"/>
<text text-anchor="middle" x="81" y="-119.5" font-family="Helvetica,sans-Serif" font-size="10.00">ExtSolver.H</text>
</a>
</g>
</g>
<!-- Node1&#45;&gt;Node2 -->
<g id="edge1" class="edge">
<title>Node1&#45;&gt;Node2</title>
<path fill="none" stroke="midnightblue" d="M1750.12,-176.71C1527.59,-175.01 460.05,-165.21 132,-132 127.35,-131.53 122.48,-130.88 117.68,-130.14"/>
<polygon fill="midnightblue" stroke="midnightblue" points="1750.34,-180.21 1760.37,-176.79 1750.4,-173.21 1750.34,-180.21"/>
</g>
<!-- Node9 -->
<g id="node6" class="node">
<title>Node9</title>
<g id="a_node6"><a xlink:href="_mesh_map_8_h.html" target="_top" xlink:title=" ">
<polygon fill="white" stroke="black" points="389,-112.5 389,-131.5 463,-131.5 463,-112.5 389,-112.5"/>
<text text-anchor="middle" x="426" y="-119.5" font-family="Helvetica,sans-Serif" font-size="10.00">MeshMap.H</text>
</a>
</g>
</g>
<!-- Node1&#45;&gt;Node9 -->
<g id="edge6" class="edge">
<title>Node1&#45;&gt;Node9</title>
<path fill="none" stroke="midnightblue" d="M1750.06,-175.38C1547.79,-167.38 657.01,-132.14 463.28,-124.47"/>
<polygon fill="midnightblue" stroke="midnightblue" points="1750.12,-178.89 1760.25,-175.78 1750.4,-171.89 1750.12,-178.89"/>
</g>
<!-- Node173 -->
<g id="node15" class="node">
<title>Node173</title>
<g id="a_node15"><a xlink:href="_derived_quantity_8_h.html" target="_top" xlink:title=" ">
<polygon fill="white" stroke="red" points="108,-0.5 108,-19.5 214,-19.5 214,-0.5 108,-0.5"/>
<text text-anchor="middle" x="161" y="-7.5" font-family="Helvetica,sans-Serif" font-size="10.00">DerivedQuantity.H</text>
</a>
</g>
</g>
<!-- Node1&#45;&gt;Node173 -->
<g id="edge63" class="edge">
<title>Node1&#45;&gt;Node173</title>
<path fill="none" stroke="midnightblue" d="M1750.26,-176.7C1514.96,-174.87 338,-164.13 269,-132 215.91,-107.27 177.79,-42.85 165.37,-19.56"/>
<polygon fill="midnightblue" stroke="midnightblue" points="1750.4,-180.2 1760.43,-176.78 1750.46,-173.2 1750.4,-180.2"/>
</g>
<!-- Node197 -->
<g id="node16" class="node">
<title>Node197</title>
<g id="a_node16"><a xlink:href="_a_b_l_stats_base_8_h.html" target="_top" xlink:title=" ">
<polygon fill="white" stroke="red" points="247.5,-0.5 247.5,-19.5 342.5,-19.5 342.5,-0.5 247.5,-0.5"/>
<text text-anchor="middle" x="295" y="-7.5" font-family="Helvetica,sans-Serif" font-size="10.00">ABLStatsBase.H</text>
</a>
</g>
</g>
<!-- Node1&#45;&gt;Node197 -->
<g id="edge70" class="edge">
<title>Node1&#45;&gt;Node197</title>
<path fill="none" stroke="midnightblue" d="M1750.1,-176.5C1532.69,-173.75 517.21,-159.52 380,-132 311.45,-118.25 272.67,-133.57 233,-76 217.51,-53.53 252.17,-31.4 275.66,-19.65"/>
<polygon fill="midnightblue" stroke="midnightblue" points="1750.38,-180.01 1760.42,-176.63 1750.47,-173.01 1750.38,-180.01"/>
</g>
<!-- Node262 -->
<g id="node19" class="node">
<title>Node262</title>
<g id="a_node19"><a xlink:href="_physics_8_h.html" target="_top" xlink:title=" ">
<polygon fill="white" stroke="red" points="989,-112.5 989,-131.5 1053,-131.5 1053,-112.5 989,-112.5"/>
<text text-anchor="middle" x="1021" y="-119.5" font-family="Helvetica,sans-Serif" font-size="10.00">Physics.H</text>
</a>
</g>
</g>
<!-- Node1&#45;&gt;Node262 -->
<g id="edge21" class="edge">
<title>Node1&#45;&gt;Node262</title>
<path fill="none" stroke="midnightblue" d="M1750.18,-176.68C1639.11,-175.35 1322.35,-168.39 1062,-132 1059.11,-131.6 1056.13,-131.1 1053.14,-130.55"/>
<polygon fill="midnightblue" stroke="midnightblue" points="1750.24,-180.19 1760.27,-176.8 1750.31,-173.19 1750.24,-180.19"/>
</g>
<!-- Node282 -->
<g id="node33" class="node">
<title>Node282</title>
<g id="a_node33"><a xlink:href="_density_source_8_h.html" target="_top" xlink:title=" ">
<polygon fill="white" stroke="red" points="1071,-112.5 1071,-131.5 1169,-131.5 1169,-112.5 1071,-112.5"/>
<text text-anchor="middle" x="1120" y="-119.5" font-family="Helvetica,sans-Serif" font-size="10.00">DensitySource.H</text>
</a>
</g>
</g>
<!-- Node1&#45;&gt;Node282 -->
<g id="edge42" class="edge">
<title>Node1&#45;&gt;Node282</title>
<path fill="none" stroke="midnightblue" d="M1750.17,-175.14C1651.59,-170.41 1392.82,-156.51 1178,-132 1175.06,-131.66 1172.05,-131.29 1169.01,-130.89"/>
<polygon fill="midnightblue" stroke="midnightblue" points="1750.15,-178.65 1760.3,-175.62 1750.48,-171.65 1750.15,-178.65"/>
</g>
<!-- Node283 -->
<g id="node34" class="node">
<title>Node283</title>
<g id="a_node34"><a xlink:href="_momentum_source_8_h.html" target="_top" xlink:title=" ">
<polygon fill="white" stroke="red" points="1187,-112.5 1187,-131.5 1303,-131.5 1303,-112.5 1187,-112.5"/>
<text text-anchor="middle" x="1245" y="-119.5" font-family="Helvetica,sans-Serif" font-size="10.00">MomentumSource.H</text>
</a>
</g>
</g>
<!-- Node1&#45;&gt;Node283 -->
<g id="edge43" class="edge">
<title>Node1&#45;&gt;Node283</title>
<path fill="none" stroke="midnightblue" d="M1750.44,-173.74C1667.82,-166.97 1474.15,-150.5 1312,-132 1309.08,-131.67 1306.1,-131.31 1303.09,-130.95"/>
<polygon fill="midnightblue" stroke="midnightblue" points="1750.16,-177.23 1760.41,-174.55 1750.73,-170.25 1750.16,-177.23"/>
</g>
<!-- Node297 -->
<g id="node35" class="node">
<title>Node297</title>
<g id="a_node35"><a xlink:href="_p_d_e_base_8_h.html" target="_top" xlink:title=" ">
<polygon fill="white" stroke="red" points="1321.5,-112.5 1321.5,-131.5 1392.5,-131.5 1392.5,-112.5 1321.5,-112.5"/>
<text text-anchor="middle" x="1357" y="-119.5" font-family="Helvetica,sans-Serif" font-size="10.00">PDEBase.H</text>
</a>
</g>
</g>
<!-- Node1&#45;&gt;Node297 -->
<g id="edge44" class="edge">
<title>Node1&#45;&gt;Node297</title>
<path fill="none" stroke="midnightblue" d="M1750.07,-173.38C1679.01,-166.85 1528.32,-151.9 1402,-132 1399.01,-131.53 1395.92,-131 1392.81,-130.44"/>
<polygon fill="midnightblue" stroke="midnightblue" points="1750.1,-176.9 1760.37,-174.32 1750.73,-169.93 1750.1,-176.9"/>
</g>
<!-- Node298 -->
<g id="node36" class="node">
<title>Node298</title>
<g id="a_node36"><a xlink:href="_s_d_r_source_8_h.html" target="_top" xlink:title=" ">
<polygon fill="white" stroke="red" points="1411,-112.5 1411,-131.5 1491,-131.5 1491,-112.5 1411,-112.5"/>
<text text-anchor="middle" x="1451" y="-119.5" font-family="Helvetica,sans-Serif" font-size="10.00">SDRSource.H</text>
</a>
</g>
</g>
<!-- Node1&#45;&gt;Node298 -->
<g id="edge47" class="edge">
<title>Node1&#45;&gt;Node298</title>
<path fill="none" stroke="midnightblue" d="M1750.44,-171.1C1694.16,-162.82 1589.21,-147.09 1500,-132 1497.1,-131.51 1494.11,-130.99 1491.1,-130.46"/>
<polygon fill="midnightblue" stroke="midnightblue" points="1749.97,-174.57 1760.37,-172.55 1750.98,-167.64 1749.97,-174.57"/>
</g>
<!-- Node300 -->
<g id="node37" class="node">
<title>Node300</title>
<g id="a_node37"><a xlink:href="_source_term_8_h.html" target="_top" xlink:title=" ">
<polygon fill="white" stroke="red" points="1509,-112.5 1509,-131.5 1593,-131.5 1593,-112.5 1509,-112.5"/>
<text text-anchor="middle" x="1551" y="-119.5" font-family="Helvetica,sans-Serif" font-size="10.00">SourceTerm.H</text>
</a>
</g>
</g>
<!-- Node1&#45;&gt;Node300 -->
<g id="edge48" class="edge">
<title>Node1&#45;&gt;Node300</title>
<path fill="none" stroke="midnightblue" d="M1750.08,-167.79C1704.91,-157.63 1632.79,-141.4 1588.88,-131.52"/>
<polygon fill="midnightblue" stroke="midnightblue" points="1749.59,-171.27 1760.12,-170.05 1751.13,-164.44 1749.59,-171.27"/>
</g>
<!-- Node301 -->
<g id="node38" class="node">
<title>Node301</title>
<g id="a_node38"><a xlink:href="_temperature_source_8_h.html" target="_top" xlink:title=" ">
<polygon fill="white" stroke="red" points="1611,-112.5 1611,-131.5 1733,-131.5 1733,-112.5 1611,-112.5"/>
<text text-anchor="middle" x="1672" y="-119.5" font-family="Helvetica,sans-Serif" font-size="10.00">TemperatureSource.H</text>
</a>
</g>
</g>
<!-- Node1&#45;&gt;Node301 -->
<g id="edge49" class="edge">
<title>Node1&#45;&gt;Node301</title>
<path fill="none" stroke="midnightblue" d="M1762.86,-164.23C1740.6,-154.13 1710.14,-140.31 1690.77,-131.52"/>
<polygon fill="midnightblue" stroke="midnightblue" points="1761.59,-167.5 1772.14,-168.44 1764.48,-161.12 1761.59,-167.5"/>
</g>
<!-- Node303 -->
<g id="node39" class="node">
<title>Node303</title>
<g id="a_node39"><a xlink:href="_t_k_e_source_8_h.html" target="_top" xlink:title=" ">
<polygon fill="white" stroke="red" points="1751.5,-112.5 1751.5,-131.5 1830.5,-131.5 1830.5,-112.5 1751.5,-112.5"/>
<text text-anchor="middle" x="1791" y="-119.5" font-family="Helvetica,sans-Serif" font-size="10.00">TKESource.H</text>
</a>
</g>
</g>
<!-- Node1&#45;&gt;Node303 -->
<g id="edge50" class="edge">
<title>Node1&#45;&gt;Node303</title>
<path fill="none" stroke="midnightblue" d="M1791,-157.8C1791,-148.91 1791,-138.78 1791,-131.75"/>
<polygon fill="midnightblue" stroke="midnightblue" points="1787.5,-158.08 1791,-168.08 1794.5,-158.08 1787.5,-158.08"/>
</g>
<!-- Node99 -->
<g id="node40" class="node">
<title>Node99</title>
<g id="a_node40"><a xlink:href="_i_b_model_8_h.html" target="_top" xlink:title=" ">
<polygon fill="white" stroke="red" points="1848.5,-112.5 1848.5,-131.5 1915.5,-131.5 1915.5,-112.5 1848.5,-112.5"/>
<text text-anchor="middle" x="1882" y="-119.5" font-family="Helvetica,sans-Serif" font-size="10.00">IBModel.H</text>
</a>
</g>
</g>
<!-- Node1&#45;&gt;Node99 -->
<g id="edge51" class="edge">
<title>Node1&#45;&gt;Node99</title>
<path fill="none" stroke="midnightblue" d="M1814.29,-163.18C1831.04,-153.24 1853.1,-140.15 1867.42,-131.65"/>
<polygon fill="midnightblue" stroke="midnightblue" points="1812.43,-160.21 1805.62,-168.32 1816.01,-166.23 1812.43,-160.21"/>
</g>
<!-- Node132 -->
<g id="node41" class="node">
<title>Node132</title>
<g id="a_node41"><a xlink:href="_ocean_waves_model_8_h.html" target="_top" xlink:title=" ">
<polygon fill="white" stroke="red" points="1934,-112.5 1934,-131.5 2054,-131.5 2054,-112.5 1934,-112.5"/>
<text text-anchor="middle" x="1994" y="-119.5" font-family="Helvetica,sans-Serif" font-size="10.00">OceanWavesModel.H</text>
</a>
</g>
</g>
<!-- Node1&#45;&gt;Node132 -->
<g id="edge52" class="edge">
<title>Node1&#45;&gt;Node132</title>
<path fill="none" stroke="midnightblue" d="M1831.64,-166.19C1869.95,-156 1926.62,-140.92 1961.87,-131.55"/>
<polygon fill="midnightblue" stroke="midnightblue" points="1830.6,-162.85 1821.83,-168.8 1832.4,-169.61 1830.6,-162.85"/>
</g>
<!-- Node307 -->
<g id="node42" class="node">
<title>Node307</title>
<g id="a_node42"><a xlink:href="_overset_manager_8_h.html" target="_top" xlink:title=" ">
<polygon fill="white" stroke="red" points="2333.5,-56.5 2333.5,-75.5 2440.5,-75.5 2440.5,-56.5 2333.5,-56.5"/>
<text text-anchor="middle" x="2387" y="-63.5" font-family="Helvetica,sans-Serif" font-size="10.00">OversetManager.H</text>
</a>
</g>
</g>
<!-- Node1&#45;&gt;Node307 -->
<g id="edge53" class="edge">
<title>Node1&#45;&gt;Node307</title>
<path fill="none" stroke="midnightblue" d="M1831.65,-176.74C1957.9,-175.56 2337.15,-168.93 2377,-132 2392.58,-117.56 2390.8,-89.79 2388.66,-75.68"/>
<polygon fill="midnightblue" stroke="midnightblue" points="1831.59,-173.24 1821.62,-176.83 1831.65,-180.24 1831.59,-173.24"/>
</g>
<!-- Node309 -->
<g id="node43" class="node">
<title>Node309</title>
<g id="a_node43"><a xlink:href="_u_d_f_8_h.html" target="_top" xlink:title=" ">
<polygon fill="white" stroke="red" points="2072.5,-112.5 2072.5,-131.5 2119.5,-131.5 2119.5,-112.5 2072.5,-112.5"/>
<text text-anchor="middle" x="2096" y="-119.5" font-family="Helvetica,sans-Serif" font-size="10.00">UDF.H</text>
</a>
</g>
</g>
<!-- Node1&#45;&gt;Node309 -->
<g id="edge55" class="edge">
<title>Node1&#45;&gt;Node309</title>
<path fill="none" stroke="midnightblue" d="M1831.89,-171.57C1885.32,-164.16 1981.68,-149.77 2063,-132 2066.02,-131.34 2069.17,-130.58 2072.28,-129.78"/>
<polygon fill="midnightblue" stroke="midnightblue" points="1831.22,-168.13 1821.79,-172.95 1832.17,-175.06 1831.22,-168.13"/>
</g>
<!-- Node311 -->
<g id="node44" class="node">
<title>Node311</title>
<g id="a_node44"><a xlink:href="_transport_model_8_h.html" target="_top" xlink:title=" ">
<polygon fill="white" stroke="red" points="2266,-112.5 2266,-131.5 2368,-131.5 2368,-112.5 2266,-112.5"/>
<text text-anchor="middle" x="2317" y="-119.5" font-family="Helvetica,sans-Serif" font-size="10.00">TransportModel.H</text>
</a>
</g>
</g>
<!-- Node1&#45;&gt;Node311 -->
<g id="edge57" class="edge">
<title>Node1&#45;&gt;Node311</title>
<path fill="none" stroke="midnightblue" d="M1831.87,-173.78C1913.05,-167.23 2100.28,-151.31 2257,-132 2259.93,-131.64 2262.93,-131.25 2265.96,-130.84"/>
<polygon fill="midnightblue" stroke="midnightblue" points="1831.28,-170.32 1821.59,-174.61 1831.84,-177.29 1831.28,-170.32"/>
</g>
<!-- Node109 -->
<g id="node45" class="node">
<title>Node109</title>
<g id="a_node45"><a xlink:href="_turbulence_model_8_h.html" target="_top" xlink:title=" ">
<polygon fill="white" stroke="red" points="2138,-112.5 2138,-131.5 2248,-131.5 2248,-112.5 2138,-112.5"/>
<text text-anchor="middle" x="2193" y="-119.5" font-family="Helvetica,sans-Serif" font-size="10.00">TurbulenceModel.H</text>
</a>
</g>
</g>
<!-- Node1&#45;&gt;Node109 -->
<g id="edge58" class="edge">
<title>Node1&#45;&gt;Node109</title>
<path fill="none" stroke="midnightblue" d="M1831.78,-171.67C1895.31,-163.34 2021.77,-146.68 2129,-132 2131.89,-131.6 2134.85,-131.2 2137.85,-130.78"/>
<polygon fill="midnightblue" stroke="midnightblue" points="1831.23,-168.21 1821.77,-172.98 1832.14,-175.15 1831.23,-168.21"/>
</g>
<!-- Node313 -->
<g id="node46" class="node">
<title>Node313</title>
<g id="a_node46"><a xlink:href="_time_averaging_8_h.html" target="_top" xlink:title=" ">
<polygon fill="white" stroke="red" points="2502.5,-56.5 2502.5,-75.5 2603.5,-75.5 2603.5,-56.5 2502.5,-56.5"/>
<text text-anchor="middle" x="2553" y="-63.5" font-family="Helvetica,sans-Serif" font-size="10.00">TimeAveraging.H</text>
</a>
</g>
</g>
<!-- Node1&#45;&gt;Node313 -->
<g id="edge62" class="edge">
<title>Node1&#45;&gt;Node313</title>
<path fill="none" stroke="midnightblue" d="M1832.1,-177.25C1980.13,-177.8 2480.24,-176.33 2535,-132 2551.93,-118.3 2553.76,-90.19 2553.5,-75.85"/>
<polygon fill="midnightblue" stroke="midnightblue" points="1831.67,-173.75 1821.66,-177.21 1831.64,-180.75 1831.67,-173.75"/>
</g>
<!-- Node316 -->
<g id="node47" class="node">
<title>Node316</title>
<g id="a_node47"><a xlink:href="_post_processing_8_h.html" target="_top" xlink:title=" ">
<polygon fill="white" stroke="red" points="2424.5,-112.5 2424.5,-131.5 2525.5,-131.5 2525.5,-112.5 2424.5,-112.5"/>
<text text-anchor="middle" x="2475" y="-119.5" font-family="Helvetica,sans-Serif" font-size="10.00">PostProcessing.H</text>
</a>
</g>
</g>
<!-- Node1&#45;&gt;Node316 -->
<g id="edge64" class="edge">
<title>Node1&#45;&gt;Node316</title>
<path fill="none" stroke="midnightblue" d="M1831.85,-174.95C1931.07,-169.77 2192.63,-154.93 2410,-132 2414.65,-131.51 2419.47,-130.95 2424.3,-130.34"/>
<polygon fill="midnightblue" stroke="midnightblue" points="1831.46,-171.47 1821.66,-175.48 1831.82,-178.46 1831.46,-171.47"/>
</g>
<!-- Node318 -->
<g id="node48" class="node">
<title>Node318</title>
<g id="a_node48"><a xlink:href="_sampler_base_8_h.html" target="_top" xlink:title=" ">
<polygon fill="white" stroke="red" points="2582,-112.5 2582,-131.5 2674,-131.5 2674,-112.5 2582,-112.5"/>
<text text-anchor="middle" x="2628" y="-119.5" font-family="Helvetica,sans-Serif" font-size="10.00">SamplerBase.H</text>
</a>
</g>
</g>
<!-- Node1&#45;&gt;Node318 -->
<g id="edge68" class="edge">
<title>Node1&#45;&gt;Node318</title>
<path fill="none" stroke="midnightblue" d="M1831.99,-175.94C1947.84,-172.66 2287.46,-161.1 2568,-132 2572.51,-131.53 2577.19,-130.97 2581.87,-130.35"/>
<polygon fill="midnightblue" stroke="midnightblue" points="1831.7,-172.45 1821.8,-176.22 1831.9,-179.44 1831.7,-172.45"/>
</g>
<!-- Node328 -->
<g id="node49" class="node">
<title>Node328</title>
<g id="a_node49"><a xlink:href="_refinement_criteria_8_h.html" target="_top" xlink:title=" ">
<polygon fill="white" stroke="red" points="2692.5,-112.5 2692.5,-131.5 2811.5,-131.5 2811.5,-112.5 2692.5,-112.5"/>
<text text-anchor="middle" x="2752" y="-119.5" font-family="Helvetica,sans-Serif" font-size="10.00">RefinementCriteria.H</text>
</a>
</g>
</g>
<!-- Node1&#45;&gt;Node328 -->
<g id="edge69" class="edge">
<title>Node1&#45;&gt;Node328</title>
<path fill="none" stroke="midnightblue" d="M1831.91,-176.09C1958.59,-173.03 2355.55,-161.57 2683,-132 2686.01,-131.73 2689.09,-131.42 2692.19,-131.1"/>
<polygon fill="midnightblue" stroke="midnightblue" points="1831.79,-172.59 1821.87,-176.33 1831.95,-179.59 1831.79,-172.59"/>
</g>
<!-- Node240 -->
<g id="node50" class="node">
<title>Node240</title>
<g id="a_node50"><a xlink:href="_actuator_model_8_h.html" target="_top" xlink:title=" ">
<polygon fill="white" stroke="red" points="2830,-112.5 2830,-131.5 2928,-131.5 2928,-112.5 2830,-112.5"/>
<text text-anchor="middle" x="2879" y="-119.5" font-family="Helvetica,sans-Serif" font-size="10.00">ActuatorModel.H</text>
</a>
</g>
</g>
<!-- Node1&#45;&gt;Node240 -->
<g id="edge71" class="edge">
<title>Node1&#45;&gt;Node240</title>
<path fill="none" stroke="midnightblue" d="M1832.05,-176.83C1971.21,-175.91 2437.79,-169.99 2821,-132 2823.84,-131.72 2826.75,-131.39 2829.69,-131.03"/>
<polygon fill="midnightblue" stroke="midnightblue" points="1831.82,-173.33 1821.84,-176.89 1831.86,-180.33 1831.82,-173.33"/>
</g>
<!-- Node3 -->
<g id="node3" class="node">
<title>Node3</title>
<g id="a_node3"><a xlink:href="_c_f_d_sim_8cpp.html" target="_top" xlink:title=" ">
<polygon fill="white" stroke="black" points="2265,-0.5 2265,-19.5 2341,-19.5 2341,-0.5 2265,-0.5"/>
<text text-anchor="middle" x="2303" y="-7.5" font-family="Helvetica,sans-Serif" font-size="10.00">CFDSim.cpp</text>
</a>
</g>
</g>
<!-- Node2&#45;&gt;Node3 -->
<g id="edge2" class="edge">
<title>Node2&#45;&gt;Node3</title>
<path fill="none" stroke="midnightblue" d="M127.94,-119.64C263.56,-115.5 667.54,-101.75 1002,-76 1086.66,-69.48 1107.31,-62.17 1192,-56 1611.72,-25.44 2122.25,-14.3 2264.57,-11.66"/>
<polygon fill="midnightblue" stroke="midnightblue" points="127.79,-116.14 117.9,-119.94 128,-123.14 127.79,-116.14"/>
</g>
<!-- Node4 -->
<g id="node4" class="node">
<title>Node4</title>
<g id="a_node4"><a xlink:href="_fast_iface_8_h.html" target="_top" xlink:title=" ">
<polygon fill="white" stroke="red" points="45.5,-56.5 45.5,-75.5 116.5,-75.5 116.5,-56.5 45.5,-56.5"/>
<text text-anchor="middle" x="81" y="-63.5" font-family="Helvetica,sans-Serif" font-size="10.00">FastIface.H</text>
</a>
</g>
</g>
<!-- Node2&#45;&gt;Node4 -->
<g id="edge3" class="edge">
<title>Node2&#45;&gt;Node4</title>
<path fill="none" stroke="midnightblue" d="M81,-101.8C81,-92.91 81,-82.78 81,-75.75"/>
<polygon fill="midnightblue" stroke="midnightblue" points="77.5,-102.08 81,-112.08 84.5,-102.08 77.5,-102.08"/>
</g>
<!-- Node6 -->
<g id="node5" class="node">
<title>Node6</title>
<g id="a_node5"><a xlink:href="_turbine_fast_8_h.html" target="_top" xlink:title=" ">
<polygon fill="white" stroke="red" points="0,-0.5 0,-19.5 82,-19.5 82,-0.5 0,-0.5"/>
<text text-anchor="middle" x="41" y="-7.5" font-family="Helvetica,sans-Serif" font-size="10.00">TurbineFast.H</text>
</a>
</g>
</g>
<!-- Node2&#45;&gt;Node6 -->
<g id="edge5" class="edge">
<title>Node2&#45;&gt;Node6</title>
<path fill="none" stroke="midnightblue" d="M59.83,-106.04C50.67,-98.26 40.92,-87.88 36,-76 28.2,-57.18 33.84,-32.69 37.88,-19.81"/>
<polygon fill="midnightblue" stroke="midnightblue" points="57.92,-108.99 67.94,-112.44 62.25,-103.49 57.92,-108.99"/>
</g>
<!-- Node4&#45;&gt;Node6 -->
<g id="edge4" class="edge">
<title>Node4&#45;&gt;Node6</title>
<path fill="none" stroke="midnightblue" d="M68.3,-47.86C61.37,-38.5 53.09,-27.33 47.48,-19.75"/>
<polygon fill="midnightblue" stroke="midnightblue" points="65.63,-50.13 74.39,-56.08 71.25,-45.96 65.63,-50.13"/>
</g>
<!-- Node10 -->
<g id="node7" class="node">
<title>Node10</title>
<g id="a_node7"><a xlink:href="_c_f_d_sim_8_h.html" target="_top" xlink:title=" ">
<polygon fill="white" stroke="red" points="927,-56.5 927,-75.5 993,-75.5 993,-56.5 927,-56.5"/>
<text text-anchor="middle" x="960" y="-63.5" font-family="Helvetica,sans-Serif" font-size="10.00">CFDSim.H</text>
</a>
</g>
</g>
<!-- Node9&#45;&gt;Node10 -->
<g id="edge7" class="edge">
<title>Node9&#45;&gt;Node10</title>
<path fill="none" stroke="midnightblue" d="M473.41,-118.56C561.42,-113.61 755.85,-100.7 918,-76 920.8,-75.57 923.7,-75.07 926.6,-74.54"/>
<polygon fill="midnightblue" stroke="midnightblue" points="473.01,-115.08 463.22,-119.12 473.39,-122.06 473.01,-115.08"/>
</g>
<!-- Node15 -->
<g id="node8" class="node">
<title>Node15</title>
<g id="a_node8"><a xlink:href="_mesh_map_8cpp.html" target="_top" xlink:title=" ">
<polygon fill="white" stroke="black" points="371,-0.5 371,-19.5 455,-19.5 455,-0.5 371,-0.5"/>
<text text-anchor="middle" x="413" y="-7.5" font-family="Helvetica,sans-Serif" font-size="10.00">MeshMap.cpp</text>
</a>
</g>
</g>
<!-- Node9&#45;&gt;Node15 -->
<g id="edge18" class="edge">
<title>Node9&#45;&gt;Node15</title>
<path fill="none" stroke="midnightblue" d="M378.68,-116.09C329.64,-109.9 257.83,-97.41 241,-76 235.51,-69.01 235.57,-63.04 241,-56 249.04,-45.59 322.67,-29.08 370.95,-19.22"/>
<polygon fill="midnightblue" stroke="midnightblue" points="378.42,-119.58 388.77,-117.31 379.27,-112.63 378.42,-119.58"/>
</g>
<!-- Node258 -->
<g id="node17" class="node">
<title>Node258</title>
<g id="a_node17"><a xlink:href="_channel_flow_map_8_h.html" target="_top" xlink:title=" ">
<polygon fill="white" stroke="red" points="250.5,-56.5 250.5,-75.5 361.5,-75.5 361.5,-56.5 250.5,-56.5"/>
<text text-anchor="middle" x="306" y="-63.5" font-family="Helvetica,sans-Serif" font-size="10.00">ChannelFlowMap.H</text>
</a>
</g>
</g>
<!-- Node9&#45;&gt;Node258 -->
<g id="edge19" class="edge">
<title>Node9&#45;&gt;Node258</title>
<path fill="none" stroke="midnightblue" d="M397.63,-108.23C375.18,-98.13 344.46,-84.31 324.93,-75.52"/>
<polygon fill="midnightblue" stroke="midnightblue" points="396.43,-111.53 406.99,-112.44 399.3,-105.15 396.43,-111.53"/>
</g>
<!-- Node260 -->
<g id="node18" class="node">
<title>Node260</title>
<g id="a_node18"><a xlink:href="_constant_map_8_h.html" target="_top" xlink:title=" ">
<polygon fill="white" stroke="red" points="380,-56.5 380,-75.5 472,-75.5 472,-56.5 380,-56.5"/>
<text text-anchor="middle" x="426" y="-63.5" font-family="Helvetica,sans-Serif" font-size="10.00">ConstantMap.H</text>
</a>
</g>
</g>
<!-- Node9&#45;&gt;Node260 -->
<g id="edge20" class="edge">
<title>Node9&#45;&gt;Node260</title>
<path fill="none" stroke="midnightblue" d="M426,-101.8C426,-92.91 426,-82.78 426,-75.75"/>
<polygon fill="midnightblue" stroke="midnightblue" points="422.5,-102.08 426,-112.08 429.5,-102.08 422.5,-102.08"/>
</g>
<!-- Node10&#45;&gt;Node3 -->
<g id="edge8" class="edge">
<title>Node10&#45;&gt;Node3</title>
<path fill="none" stroke="midnightblue" d="M1003.33,-62.37C1035.73,-60.45 1081.13,-57.87 1121,-56 1571.01,-34.86 2117.75,-16.91 2264.98,-12.2"/>
<polygon fill="midnightblue" stroke="midnightblue" points="1003.07,-58.88 993.29,-62.97 1003.48,-65.87 1003.07,-58.88"/>
</g>
<!-- Node10&#45;&gt;Node15 -->
<g id="edge9" class="edge">
<title>Node10&#45;&gt;Node15</title>
<path fill="none" stroke="midnightblue" d="M916.43,-55.95C718.15,-27.52 664.46,-43.51 469,-20 464.5,-19.46 459.81,-18.82 455.15,-18.14"/>
<polygon fill="midnightblue" stroke="midnightblue" points="916.2,-59.45 926.6,-57.43 917.21,-52.53 916.2,-59.45"/>
</g>
<!-- Node144 -->
<g id="node9" class="node">
<title>Node144</title>
<g id="a_node9"><a xlink:href="_burggraf_flow_8_h.html" target="_top" xlink:title=" ">
<polygon fill="white" stroke="red" points="478,-0.5 478,-19.5 570,-19.5 570,-0.5 478,-0.5"/>
<text text-anchor="middle" x="524" y="-7.5" font-family="Helvetica,sans-Serif" font-size="10.00">BurggrafFlow.H</text>
</a>
</g>
</g>
<!-- Node10&#45;&gt;Node144 -->
<g id="edge10" class="edge">
<title>Node10&#45;&gt;Node144</title>
<path fill="none" stroke="midnightblue" d="M916.59,-56.15C867.13,-49.81 663.24,-26.73 570.33,-16.23"/>
<polygon fill="midnightblue" stroke="midnightblue" points="916.2,-59.63 926.59,-57.53 917.16,-52.7 916.2,-59.63"/>
</g>
<!-- Node13 -->
<g id="node10" class="node">
<title>Node13</title>
<g id="a_node10"><a xlink:href="_channel_flow_8_h.html" target="_top" xlink:title=" ">
<polygon fill="white" stroke="red" points="1140.5,-0.5 1140.5,-19.5 1229.5,-19.5 1229.5,-0.5 1140.5,-0.5"/>
<text text-anchor="middle" x="1185" y="-7.5" font-family="Helvetica,sans-Serif" font-size="10.00">ChannelFlow.H</text>
</a>
</g>
</g>
<!-- Node10&#45;&gt;Node13 -->
<g id="edge11" class="edge">
<title>Node10&#45;&gt;Node13</title>
<path fill="none" stroke="midnightblue" d="M1002.98,-54.69C1045.47,-44.49 1109.72,-29.07 1149.43,-19.54"/>
<polygon fill="midnightblue" stroke="midnightblue" points="1002.11,-51.29 993.2,-57.03 1003.74,-58.1 1002.11,-51.29"/>
</g>
<!-- Node146 -->
<g id="node11" class="node">
<title>Node146</title>
<g id="a_node11"><a xlink:href="_convecting_taylor_vortex_8_h.html" target="_top" xlink:title=" ">
<polygon fill="white" stroke="red" points="613.5,-0.5 613.5,-19.5 756.5,-19.5 756.5,-0.5 613.5,-0.5"/>
<text text-anchor="middle" x="685" y="-7.5" font-family="Helvetica,sans-Serif" font-size="10.00">ConvectingTaylorVortex.H</text>
</a>
</g>
</g>
<!-- Node10&#45;&gt;Node146 -->
<g id="edge12" class="edge">
<title>Node10&#45;&gt;Node146</title>
<path fill="none" stroke="midnightblue" d="M917.02,-55.83C846.29,-41.48 775.49,-27.98 730.59,-19.52"/>
<polygon fill="midnightblue" stroke="midnightblue" points="916.5,-59.3 927,-57.86 917.9,-52.44 916.5,-59.3"/>
</g>
<!-- Node148 -->
<g id="node12" class="node">
<title>Node148</title>
<g id="a_node12"><a xlink:href="_ekman_spiral_8_h.html" target="_top" xlink:title=" ">
<polygon fill="white" stroke="red" points="823.5,-0.5 823.5,-19.5 912.5,-19.5 912.5,-0.5 823.5,-0.5"/>
<text text-anchor="middle" x="868" y="-7.5" font-family="Helvetica,sans-Serif" font-size="10.00">EkmanSpiral.H</text>
</a>
</g>
</g>
<!-- Node10&#45;&gt;Node148 -->
<g id="edge13" class="edge">
<title>Node10&#45;&gt;Node148</title>
<path fill="none" stroke="midnightblue" d="M936.45,-51.18C919.52,-41.24 897.22,-28.15 882.74,-19.65"/>
<polygon fill="midnightblue" stroke="midnightblue" points="934.82,-54.28 945.22,-56.32 938.37,-48.24 934.82,-54.28"/>
</g>
<!-- Node150 -->
<g id="node13" class="node">
<title>Node150</title>
<g id="a_node13"><a xlink:href="_hybrid_r_a_n_s_l_e_s_a_b_l_8_h.html" target="_top" xlink:title=" ">
<polygon fill="white" stroke="red" points="930.5,-0.5 930.5,-19.5 1053.5,-19.5 1053.5,-0.5 930.5,-0.5"/>
<text text-anchor="middle" x="992" y="-7.5" font-family="Helvetica,sans-Serif" font-size="10.00">HybridRANSLESABL.H</text>
</a>
</g>
</g>
<!-- Node10&#45;&gt;Node150 -->
<g id="edge14" class="edge">
<title>Node10&#45;&gt;Node150</title>
<path fill="none" stroke="midnightblue" d="M970.5,-47.27C975.97,-38.05 982.42,-27.17 986.81,-19.75"/>
<polygon fill="midnightblue" stroke="midnightblue" points="967.37,-45.7 965.28,-56.08 973.39,-49.26 967.37,-45.7"/>
</g>
<!-- Node152 -->
<g id="node14" class="node">
<title>Node152</title>
<g id="a_node14"><a xlink:href="_m_m_s_8_h.html" target="_top" xlink:title=" ">
<polygon fill="white" stroke="red" points="1071.5,-0.5 1071.5,-19.5 1122.5,-19.5 1122.5,-0.5 1071.5,-0.5"/>
<text text-anchor="middle" x="1097" y="-7.5" font-family="Helvetica,sans-Serif" font-size="10.00">MMS.H</text>
</a>
</g>
</g>
<!-- Node10&#45;&gt;Node152 -->
<g id="edge15" class="edge">
<title>Node10&#45;&gt;Node152</title>
<path fill="none" stroke="midnightblue" d="M991.02,-52.77C1016.76,-42.63 1052.69,-28.47 1075.39,-19.52"/>
<polygon fill="midnightblue" stroke="midnightblue" points="989.73,-49.52 981.71,-56.44 992.29,-56.03 989.73,-49.52"/>
</g>
<!-- Node10&#45;&gt;Node173 -->
<g id="edge16" class="edge">
<title>Node10&#45;&gt;Node173</title>
<path fill="none" stroke="midnightblue" d="M916.3,-55.99C616.2,-16.82 536.18,-45.29 238,-20 230.36,-19.35 222.3,-18.55 214.39,-17.68"/>
<polygon fill="midnightblue" stroke="midnightblue" points="916.24,-59.51 926.61,-57.35 917.16,-52.57 916.24,-59.51"/>
</g>
<!-- Node10&#45;&gt;Node197 -->
<g id="edge17" class="edge">
<title>Node10&#45;&gt;Node197</title>
<path fill="none" stroke="midnightblue" d="M916.66,-56.01C670.99,-22.55 605.17,-44.18 362,-20 355.69,-19.37 349.07,-18.61 342.53,-17.8"/>
<polygon fill="midnightblue" stroke="midnightblue" points="916.22,-59.48 926.61,-57.38 917.18,-52.55 916.22,-59.48"/>
</g>
<!-- Node262&#45;&gt;Node10 -->
<g id="edge22" class="edge">
<title>Node262&#45;&gt;Node10</title>
<path fill="none" stroke="midnightblue" d="M1003.53,-105.54C992.66,-95.91 979.06,-83.87 969.98,-75.83"/>
<polygon fill="midnightblue" stroke="midnightblue" points="1001.39,-108.32 1011.2,-112.32 1006.03,-103.07 1001.39,-108.32"/>
</g>
<!-- Node262&#45;&gt;Node144 -->
<g id="edge28" class="edge">
<title>Node262&#45;&gt;Node144</title>
<path fill="none" stroke="midnightblue" d="M978.6,-119.55C868.67,-115.44 580.66,-102.27 547,-76 529.45,-62.3 525.26,-34.2 524.28,-19.85"/>
<polygon fill="midnightblue" stroke="midnightblue" points="978.55,-123.05 988.67,-119.92 978.8,-116.06 978.55,-123.05"/>
</g>
<!-- Node262&#45;&gt;Node13 -->
<g id="edge29" class="edge">
<title>Node262&#45;&gt;Node13</title>
<path fill="none" stroke="midnightblue" d="M1042.3,-106.71C1076.86,-83.53 1144.1,-38.43 1172.19,-19.59"/>
<polygon fill="midnightblue" stroke="midnightblue" points="1040.22,-103.89 1033.87,-112.37 1044.12,-109.7 1040.22,-103.89"/>
</g>
<!-- Node262&#45;&gt;Node146 -->
<g id="edge30" class="edge">
<title>Node262&#45;&gt;Node146</title>
<path fill="none" stroke="midnightblue" d="M978.62,-120.07C869.43,-117.23 585.07,-106.92 557,-76 530.62,-46.93 585.15,-29.03 631.02,-19.55"/>
<polygon fill="midnightblue" stroke="midnightblue" points="978.85,-123.57 988.93,-120.33 979.02,-116.58 978.85,-123.57"/>
</g>
<!-- Node262&#45;&gt;Node148 -->
<g id="edge31" class="edge">
<title>Node262&#45;&gt;Node148</title>
<path fill="none" stroke="midnightblue" d="M1020.05,-101.92C1018.35,-87.56 1013.83,-68.31 1002,-56 988.52,-41.98 940.37,-28.07 905.64,-19.51"/>
<polygon fill="midnightblue" stroke="midnightblue" points="1016.59,-102.49 1020.89,-112.17 1023.56,-101.92 1016.59,-102.49"/>
</g>
<!-- Node262&#45;&gt;Node150 -->
<g id="edge33" class="edge">
<title>Node262&#45;&gt;Node150</title>
<path fill="none" stroke="midnightblue" d="M1030.31,-103.26C1036.02,-89.92 1041.16,-71.37 1035,-56 1028.89,-40.76 1014.87,-27.75 1004.5,-19.7"/>
<polygon fill="midnightblue" stroke="midnightblue" points="1027.14,-101.78 1026.01,-112.31 1033.47,-104.78 1027.14,-101.78"/>
</g>
<!-- Node262&#45;&gt;Node152 -->
<g id="edge34" class="edge">
<title>Node262&#45;&gt;Node152</title>
<path fill="none" stroke="midnightblue" d="M1032.78,-103.96C1049.25,-80.12 1078.55,-37.71 1091.06,-19.59"/>
<polygon fill="midnightblue" stroke="midnightblue" points="1029.77,-102.15 1026.96,-112.37 1035.53,-106.13 1029.77,-102.15"/>
</g>
<!-- Node37 -->
<g id="node20" class="node">
<title>Node37</title>
<g id="a_node20"><a xlink:href="icns__advection_8_h.html" target="_top" xlink:title=" ">
<polygon fill="white" stroke="red" points="1201,-56.5 1201,-75.5 1301,-75.5 1301,-56.5 1201,-56.5"/>
<text text-anchor="middle" x="1251" y="-63.5" font-family="Helvetica,sans-Serif" font-size="10.00">icns_advection.H</text>
</a>
</g>
</g>
<!-- Node262&#45;&gt;Node37 -->
<g id="edge23" class="edge">
<title>Node262&#45;&gt;Node37</title>
<path fill="none" stroke="midnightblue" d="M1063.42,-111.04C1106.79,-100.86 1173.45,-85.21 1214.53,-75.56"/>
<polygon fill="midnightblue" stroke="midnightblue" points="1062.4,-107.68 1053.47,-113.38 1064,-114.5 1062.4,-107.68"/>
</g>
<!-- Node263 -->
<g id="node21" class="node">
<title>Node263</title>
<g id="a_node21"><a xlink:href="_i_b_8_h.html" target="_top" xlink:title=" ">
<polygon fill="white" stroke="red" points="1319.5,-56.5 1319.5,-75.5 1356.5,-75.5 1356.5,-56.5 1319.5,-56.5"/>
<text text-anchor="middle" x="1338" y="-63.5" font-family="Helvetica,sans-Serif" font-size="10.00">IB.H</text>
</a>
</g>
</g>
<!-- Node262&#45;&gt;Node263 -->
<g id="edge24" class="edge">
<title>Node262&#45;&gt;Node263</title>
<path fill="none" stroke="midnightblue" d="M1063.03,-111.94C1173.33,-92.53 1204.57,-100.42 1310,-76 1313.08,-75.29 1316.32,-74.39 1319.44,-73.44"/>
<polygon fill="midnightblue" stroke="midnightblue" points="1062.41,-108.49 1053.18,-113.71 1063.65,-115.38 1062.41,-108.49"/>
</g>
<!-- Node103 -->
<g id="node22" class="node">
<title>Node103</title>
<g id="a_node22"><a xlink:href="incflo__advance_8cpp.html" target="_top" xlink:title=" ">
<polygon fill="white" stroke="black" points="2127,-56.5 2127,-75.5 2237,-75.5 2237,-56.5 2127,-56.5"/>
<text text-anchor="middle" x="2182" y="-63.5" font-family="Helvetica,sans-Serif" font-size="10.00">incflo_advance.cpp</text>
</a>
</g>
</g>
<!-- Node262&#45;&gt;Node103 -->
<g id="edge25" class="edge">
<title>Node262&#45;&gt;Node103</title>
<path fill="none" stroke="midnightblue" d="M1063.16,-112.11C1529.69,-54.31 1653.48,-116.47 2118,-76 2120.91,-75.75 2123.88,-75.45 2126.88,-75.13"/>
<polygon fill="midnightblue" stroke="midnightblue" points="1062.62,-108.65 1053.13,-113.37 1063.49,-115.6 1062.62,-108.65"/>
</g>
<!-- Node264 -->
<g id="node23" class="node">
<title>Node264</title>
<g id="a_node23"><a xlink:href="_ocean_waves_8_h.html" target="_top" xlink:title=" ">
<polygon fill="white" stroke="red" points="1375,-56.5 1375,-75.5 1465,-75.5 1465,-56.5 1375,-56.5"/>
<text text-anchor="middle" x="1420" y="-63.5" font-family="Helvetica,sans-Serif" font-size="10.00">OceanWaves.H</text>
</a>
</g>
</g>
<!-- Node262&#45;&gt;Node264 -->
<g id="edge26" class="edge">
<title>Node262&#45;&gt;Node264</title>
<path fill="none" stroke="midnightblue" d="M1063.42,-111.91C1197.49,-89.69 1234,-94.49 1365,-76 1368.16,-75.55 1371.42,-75.07 1374.7,-74.57"/>
<polygon fill="midnightblue" stroke="midnightblue" points="1062.45,-108.52 1053.17,-113.63 1063.61,-115.42 1062.45,-108.52"/>
</g>
<!-- Node265 -->
<g id="node24" class="node">
<title>Node265</title>
<g id="a_node24"><a xlink:href="_boussinesq_bubble_8_h.html" target="_top" xlink:title=" ">
<polygon fill="white" stroke="red" points="1483,-56.5 1483,-75.5 1599,-75.5 1599,-56.5 1483,-56.5"/>
<text text-anchor="middle" x="1541" y="-63.5" font-family="Helvetica,sans-Serif" font-size="10.00">BoussinesqBubble.H</text>
</a>
</g>
</g>
<!-- Node262&#45;&gt;Node265 -->
<g id="edge27" class="edge">
<title>Node262&#45;&gt;Node265</title>
<path fill="none" stroke="midnightblue" d="M1063.07,-112.02C1245.42,-84.65 1294.52,-95.89 1474,-76 1476.92,-75.68 1479.9,-75.33 1482.92,-74.97"/>
<polygon fill="midnightblue" stroke="midnightblue" points="1062.52,-108.57 1053.16,-113.53 1063.57,-115.49 1062.52,-108.57"/>
</g>
<!-- Node266 -->
<g id="node25" class="node">
<title>Node266</title>
<g id="a_node25"><a xlink:href="_free_stream_8_h.html" target="_top" xlink:title=" ">
<polygon fill="white" stroke="red" points="2025.5,-56.5 2025.5,-75.5 2108.5,-75.5 2108.5,-56.5 2025.5,-56.5"/>
<text text-anchor="middle" x="2067" y="-63.5" font-family="Helvetica,sans-Serif" font-size="10.00">FreeStream.H</text>
</a>
</g>
</g>
<!-- Node262&#45;&gt;Node266 -->
<g id="edge32" class="edge">
<title>Node262&#45;&gt;Node266</title>
<path fill="none" stroke="midnightblue" d="M1063.15,-112.11C1484.65,-59.27 1597.38,-120.62 2016,-76 2019.04,-75.68 2022.17,-75.28 2025.32,-74.83"/>
<polygon fill="midnightblue" stroke="midnightblue" points="1062.61,-108.65 1053.13,-113.38 1063.5,-115.59 1062.61,-108.65"/>
</g>
<!-- Node267 -->
<g id="node26" class="node">
<title>Node267</title>
<g id="a_node26"><a xlink:href="_breaking_waves_8_h.html" target="_top" xlink:title=" ">
<polygon fill="white" stroke="red" points="1617.5,-56.5 1617.5,-75.5 1720.5,-75.5 1720.5,-56.5 1617.5,-56.5"/>
<text text-anchor="middle" x="1669" y="-63.5" font-family="Helvetica,sans-Serif" font-size="10.00">BreakingWaves.H</text>
</a>
</g>
</g>
<!-- Node262&#45;&gt;Node267 -->
<g id="edge35" class="edge">
<title>Node262&#45;&gt;Node267</title>
<path fill="none" stroke="midnightblue" d="M1063.28,-112.04C1304.55,-78.48 1369.48,-101.42 1608,-76 1611.09,-75.67 1614.26,-75.3 1617.45,-74.9"/>
<polygon fill="midnightblue" stroke="midnightblue" points="1062.56,-108.6 1053.15,-113.47 1063.54,-115.54 1062.56,-108.6"/>
</g>
<!-- Node268 -->
<g id="node27" class="node">
<title>Node268</title>
<g id="a_node27"><a xlink:href="_dam_break_8_h.html" target="_top" xlink:title=" ">
<polygon fill="white" stroke="red" points="1738.5,-56.5 1738.5,-75.5 1817.5,-75.5 1817.5,-56.5 1738.5,-56.5"/>
<text text-anchor="middle" x="1778" y="-63.5" font-family="Helvetica,sans-Serif" font-size="10.00">DamBreak.H</text>
</a>
</g>
</g>
<!-- Node262&#45;&gt;Node268 -->
<g id="edge36" class="edge">
<title>Node262&#45;&gt;Node268</title>
<path fill="none" stroke="midnightblue" d="M1063.28,-112.06C1358.4,-72.87 1438.12,-111.07 1730,-76 1732.69,-75.68 1735.46,-75.29 1738.25,-74.87"/>
<polygon fill="midnightblue" stroke="midnightblue" points="1062.58,-108.62 1053.14,-113.43 1063.52,-115.56 1062.58,-108.62"/>
</g>
<!-- Node269 -->
<g id="node28" class="node">
<title>Node269</title>
<g id="a_node28"><a xlink:href="_multi_phase_8_h.html" target="_top" xlink:title=" ">
<polygon fill="white" stroke="red" points="1835.5,-56.5 1835.5,-75.5 1916.5,-75.5 1916.5,-56.5 1835.5,-56.5"/>
<text text-anchor="middle" x="1876" y="-63.5" font-family="Helvetica,sans-Serif" font-size="10.00">MultiPhase.H</text>
</a>
</g>
</g>
<!-- Node262&#45;&gt;Node269 -->
<g id="edge37" class="edge">
<title>Node262&#45;&gt;Node269</title>
<path fill="none" stroke="midnightblue" d="M1063.21,-112.08C1401.21,-68.27 1492.15,-114.45 1827,-76 1829.75,-75.68 1832.58,-75.31 1835.42,-74.89"/>
<polygon fill="midnightblue" stroke="midnightblue" points="1062.6,-108.63 1053.14,-113.41 1063.51,-115.58 1062.6,-108.63"/>
</g>
<!-- Node271 -->
<g id="node29" class="node">
<title>Node271</title>
<g id="a_node29"><a xlink:href="_rain_drop_8_h.html" target="_top" xlink:title=" ">
<polygon fill="white" stroke="red" points="1935,-56.5 1935,-75.5 2007,-75.5 2007,-56.5 1935,-56.5"/>
<text text-anchor="middle" x="1971" y="-63.5" font-family="Helvetica,sans-Serif" font-size="10.00">RainDrop.H</text>
</a>
</g>
</g>
<!-- Node262&#45;&gt;Node271 -->
<g id="edge38" class="edge">
<title>Node262&#45;&gt;Node271</title>
<path fill="none" stroke="midnightblue" d="M1063.07,-112.11C1444.9,-63.61 1547.67,-121.43 1926,-76 1928.85,-75.66 1931.78,-75.23 1934.73,-74.76"/>
<polygon fill="midnightblue" stroke="midnightblue" points="1062.61,-108.64 1053.14,-113.39 1063.5,-115.59 1062.61,-108.64"/>
</g>
<!-- Node272 -->
<g id="node30" class="node">
<title>Node272</title>
<g id="a_node30"><a xlink:href="_sloshing_tank_8_h.html" target="_top" xlink:title=" ">
<polygon fill="white" stroke="red" points="566.5,-56.5 566.5,-75.5 657.5,-75.5 657.5,-56.5 566.5,-56.5"/>
<text text-anchor="middle" x="612" y="-63.5" font-family="Helvetica,sans-Serif" font-size="10.00">SloshingTank.H</text>
</a>
</g>
</g>
<!-- Node262&#45;&gt;Node272 -->
<g id="edge39" class="edge">
<title>Node262&#45;&gt;Node272</title>
<path fill="none" stroke="midnightblue" d="M978.52,-116.16C911.85,-108.44 778.61,-92.51 666,-76 663.27,-75.6 660.47,-75.18 657.65,-74.74"/>
<polygon fill="midnightblue" stroke="midnightblue" points="978.3,-119.66 988.64,-117.33 979.1,-112.7 978.3,-119.66"/>
</g>
<!-- Node273 -->
<g id="node31" class="node">
<title>Node273</title>
<g id="a_node31"><a xlink:href="_vortex_patch_8_h.html" target="_top" xlink:title=" ">
<polygon fill="white" stroke="red" points="675.5,-56.5 675.5,-75.5 760.5,-75.5 760.5,-56.5 675.5,-56.5"/>
<text text-anchor="middle" x="718" y="-63.5" font-family="Helvetica,sans-Serif" font-size="10.00">VortexPatch.H</text>
</a>
</g>
</g>
<!-- Node262&#45;&gt;Node273 -->
<g id="edge40" class="edge">
<title>Node262&#45;&gt;Node273</title>
<path fill="none" stroke="midnightblue" d="M979,-113.52C921.44,-103.26 818.61,-84.93 760.69,-74.61"/>
<polygon fill="midnightblue" stroke="midnightblue" points="978.4,-116.96 988.86,-115.27 979.63,-110.07 978.4,-116.96"/>
</g>
<!-- Node274 -->
<g id="node32" class="node">
<title>Node274</title>
<g id="a_node32"><a xlink:href="_vortex_patch_scalar_vel_8_h.html" target="_top" xlink:title=" ">
<polygon fill="white" stroke="red" points="779,-56.5 779,-75.5 909,-75.5 909,-56.5 779,-56.5"/>
<text text-anchor="middle" x="844" y="-63.5" font-family="Helvetica,sans-Serif" font-size="10.00">VortexPatchScalarVel.H</text>
</a>
</g>
</g>
<!-- Node262&#45;&gt;Node274 -->
<g id="edge41" class="edge">
<title>Node262&#45;&gt;Node274</title>
<path fill="none" stroke="midnightblue" d="M983.1,-109.44C949.72,-99.26 901.9,-84.66 871.91,-75.52"/>
<polygon fill="midnightblue" stroke="midnightblue" points="982.37,-112.87 992.95,-112.44 984.41,-106.18 982.37,-112.87"/>
</g>
<!-- Node297&#45;&gt;Node10 -->
<g id="edge45" class="edge">
<title>Node297&#45;&gt;Node10</title>
<path fill="none" stroke="midnightblue" d="M1311.19,-111.97C1187.96,-92.06 1053.98,-76.96 993.11,-70.45"/>
<polygon fill="midnightblue" stroke="midnightblue" points="1310.75,-115.45 1321.18,-113.6 1311.87,-108.54 1310.75,-115.45"/>
</g>
<!-- Node297&#45;&gt;Node103 -->
<g id="edge46" class="edge">
<title>Node297&#45;&gt;Node103</title>
<path fill="none" stroke="midnightblue" d="M1402.72,-112.12C1719.9,-73.33 1804.06,-105.91 2118,-76 2120.9,-75.72 2123.88,-75.41 2126.88,-75.07"/>
<polygon fill="midnightblue" stroke="midnightblue" points="1402.28,-108.65 1392.78,-113.35 1403.14,-115.6 1402.28,-108.65"/>
</g>
<!-- Node307&#45;&gt;Node3 -->
<g id="edge54" class="edge">
<title>Node307&#45;&gt;Node3</title>
<path fill="none" stroke="midnightblue" d="M2365.07,-50.9C2349.66,-41 2329.55,-28.07 2316.46,-19.65"/>
<polygon fill="midnightblue" stroke="midnightblue" points="2363.2,-53.86 2373.5,-56.32 2366.98,-47.97 2363.2,-53.86"/>
</g>
<!-- Node309&#45;&gt;Node266 -->
<g id="edge56" class="edge">
<title>Node309&#45;&gt;Node266</title>
<path fill="none" stroke="midnightblue" d="M2086.32,-102.98C2081.4,-93.82 2075.64,-83.09 2071.7,-75.75"/>
<polygon fill="midnightblue" stroke="midnightblue" points="2083.4,-104.93 2091.21,-112.08 2089.56,-101.62 2083.4,-104.93"/>
</g>
<!-- Node109&#45;&gt;Node3 -->
<g id="edge59" class="edge">
<title>Node109&#45;&gt;Node3</title>
<path fill="none" stroke="midnightblue" d="M2230.36,-108.55C2247.16,-101.33 2266.07,-90.7 2279,-76 2293.61,-59.38 2299.62,-33.07 2301.84,-19.59"/>
<polygon fill="midnightblue" stroke="midnightblue" points="2228.75,-105.43 2220.78,-112.42 2231.36,-111.92 2228.75,-105.43"/>
</g>
<!-- Node109&#45;&gt;Node13 -->
<g id="edge61" class="edge">
<title>Node109&#45;&gt;Node13</title>
<path fill="none" stroke="midnightblue" d="M2217.21,-107.11C2237.89,-93.57 2261.96,-72.65 2246,-56 2210.32,-18.77 1426.49,-12.24 1229.57,-11.19"/>
<polygon fill="midnightblue" stroke="midnightblue" points="2215.31,-104.17 2208.68,-112.43 2219.02,-110.11 2215.31,-104.17"/>
</g>
<!-- Node109&#45;&gt;Node103 -->
<g id="edge60" class="edge">
<title>Node109&#45;&gt;Node103</title>
<path fill="none" stroke="midnightblue" d="M2189.15,-102.1C2187.32,-93.14 2185.23,-82.86 2183.78,-75.75"/>
<polygon fill="midnightblue" stroke="midnightblue" points="2185.76,-102.98 2191.18,-112.08 2192.62,-101.59 2185.76,-102.98"/>
</g>
<!-- Node316&#45;&gt;Node3 -->
<g id="edge65" class="edge">
<title>Node316&#45;&gt;Node3</title>
<path fill="none" stroke="midnightblue" d="M2472.31,-102.16C2469.28,-87.65 2462.97,-68.09 2450,-56 2420.23,-28.25 2373.76,-17.59 2341.06,-13.51"/>
<polygon fill="midnightblue" stroke="midnightblue" points="2468.87,-102.82 2474.04,-112.07 2475.77,-101.61 2468.87,-102.82"/>
</g>
<!-- Node316&#45;&gt;Node103 -->
<g id="edge66" class="edge">
<title>Node316&#45;&gt;Node103</title>
<path fill="none" stroke="midnightblue" d="M2418.57,-110.6C2363.2,-100.4 2279.77,-85.02 2228.21,-75.52"/>
<polygon fill="midnightblue" stroke="midnightblue" points="2418.1,-114.07 2428.57,-112.44 2419.37,-107.19 2418.1,-114.07"/>
</g>
<!-- Node316&#45;&gt;Node313 -->
<g id="edge67" class="edge">
<title>Node316&#45;&gt;Node313</title>
<path fill="none" stroke="midnightblue" d="M2495.77,-106.62C2510.02,-96.76 2528.46,-83.99 2540.5,-75.65"/>
<polygon fill="midnightblue" stroke="midnightblue" points="2493.76,-103.75 2487.53,-112.32 2497.75,-109.51 2493.76,-103.75"/>
</g>
</g>
</svg>
