<?xml version="1.0" encoding="UTF-8" standalone="no"?>
<!DOCTYPE svg PUBLIC "-//W3C//DTD SVG 1.1//EN"
 "http://www.w3.org/Graphics/SVG/1.1/DTD/svg11.dtd">
<!-- Generated by graphviz version 2.43.0 (0)
 -->
<!-- Title: ViewField.H Pages: 1 -->
<svg width="4378pt" height="252pt"
 viewBox="0.00 0.00 4378.00 252.00" xmlns="http://www.w3.org/2000/svg" xmlns:xlink="http://www.w3.org/1999/xlink">
<g id="graph0" class="graph" transform="scale(1 1) rotate(0) translate(4 248)">
<title>ViewField.H</title>
<polygon fill="white" stroke="transparent" points="-4,4 -4,-248 4374,-248 4374,4 -4,4"/>
<!-- Node1 -->
<g id="node1" class="node">
<title>Node1</title>
<g id="a_node1"><a xlink:title=" ">
<polygon fill="#bfbfbf" stroke="black" points="264,-224.5 264,-243.5 338,-243.5 338,-224.5 264,-224.5"/>
<text text-anchor="middle" x="301" y="-231.5" font-family="Helvetica,sans-Serif" font-size="10.00">ViewField.H</text>
</a>
</g>
</g>
<!-- Node2 -->
<g id="node2" class="node">
<title>Node2</title>
<g id="a_node2"><a xlink:href="_field_8_h.html" target="_top" xlink:title=" ">
<polygon fill="white" stroke="red" points="1992,-168.5 1992,-187.5 2042,-187.5 2042,-168.5 1992,-168.5"/>
<text text-anchor="middle" x="2017" y="-175.5" font-family="Helvetica,sans-Serif" font-size="10.00">Field.H</text>
</a>
</g>
</g>
<!-- Node1&#45;&gt;Node2 -->
<g id="edge1" class="edge">
<title>Node1&#45;&gt;Node2</title>
<path fill="none" stroke="midnightblue" d="M348.03,-231.52C601.69,-223.54 1802.22,-185.76 1991.77,-179.79"/>
<polygon fill="midnightblue" stroke="midnightblue" points="347.92,-228.02 338.03,-231.83 348.14,-235.02 347.92,-228.02"/>
</g>
<!-- Node280 -->
<g id="node9" class="node">
<title>Node280</title>
<g id="a_node9"><a xlink:href="_view_field_8cpp.html" target="_top" xlink:title=" ">
<polygon fill="white" stroke="black" points="0,-56.5 0,-75.5 84,-75.5 84,-56.5 0,-56.5"/>
<text text-anchor="middle" x="42" y="-63.5" font-family="Helvetica,sans-Serif" font-size="10.00">ViewField.cpp</text>
</a>
</g>
</g>
<!-- Node1&#45;&gt;Node280 -->
<g id="edge72" class="edge">
<title>Node1&#45;&gt;Node280</title>
<path fill="none" stroke="midnightblue" d="M253.9,-228.33C216.76,-222.97 164.77,-211.64 125,-188 79.67,-161.05 53.38,-98.57 44.98,-75.64"/>
<polygon fill="midnightblue" stroke="midnightblue" points="253.58,-231.81 263.96,-229.68 254.52,-224.88 253.58,-231.81"/>
</g>
<!-- Node356 -->
<g id="node49" class="node">
<title>Node356</title>
<g id="a_node49"><a xlink:href="_int_scratch_field_8_h.html" target="_top" xlink:title=" ">
<polygon fill="white" stroke="red" points="283.5,-168.5 283.5,-187.5 382.5,-187.5 382.5,-168.5 283.5,-168.5"/>
<text text-anchor="middle" x="333" y="-175.5" font-family="Helvetica,sans-Serif" font-size="10.00">IntScratchField.H</text>
</a>
</g>
</g>
<!-- Node1&#45;&gt;Node356 -->
<g id="edge66" class="edge">
<title>Node1&#45;&gt;Node356</title>
<path fill="none" stroke="midnightblue" d="M311.5,-215.27C316.97,-206.05 323.42,-195.17 327.81,-187.75"/>
<polygon fill="midnightblue" stroke="midnightblue" points="308.37,-213.7 306.28,-224.08 314.39,-217.26 308.37,-213.7"/>
</g>
<!-- Node357 -->
<g id="node50" class="node">
<title>Node357</title>
<g id="a_node50"><a xlink:href="_scratch_field_8_h.html" target="_top" xlink:title=" ">
<polygon fill="white" stroke="red" points="134,-168.5 134,-187.5 220,-187.5 220,-168.5 134,-168.5"/>
<text text-anchor="middle" x="177" y="-175.5" font-family="Helvetica,sans-Serif" font-size="10.00">ScratchField.H</text>
</a>
</g>
</g>
<!-- Node1&#45;&gt;Node357 -->
<g id="edge68" class="edge">
<title>Node1&#45;&gt;Node357</title>
<path fill="none" stroke="midnightblue" d="M271.99,-220.37C248.77,-210.26 216.84,-196.35 196.56,-187.52"/>
<polygon fill="midnightblue" stroke="midnightblue" points="270.79,-223.66 281.35,-224.44 273.58,-217.24 270.79,-223.66"/>
</g>
<!-- Node3 -->
<g id="node3" class="node">
<title>Node3</title>
<g id="a_node3"><a xlink:href="_b_c_interface_8_h.html" target="_top" xlink:title=" ">
<polygon fill="white" stroke="red" points="3790,-56.5 3790,-75.5 3874,-75.5 3874,-56.5 3790,-56.5"/>
<text text-anchor="middle" x="3832" y="-63.5" font-family="Helvetica,sans-Serif" font-size="10.00">BCInterface.H</text>
</a>
</g>
</g>
<!-- Node2&#45;&gt;Node3 -->
<g id="edge2" class="edge">
<title>Node2&#45;&gt;Node3</title>
<path fill="none" stroke="midnightblue" d="M2052.57,-176.8C2303.78,-175.32 3801.7,-165.11 3834,-132 3848.66,-116.97 3840.96,-89.47 3835.66,-75.55"/>
<polygon fill="midnightblue" stroke="midnightblue" points="2052.18,-173.3 2042.2,-176.86 2052.22,-180.3 2052.18,-173.3"/>
</g>
<!-- Node5 -->
<g id="node4" class="node">
<title>Node5</title>
<g id="a_node4"><a xlink:href="_field_8cpp.html" target="_top" xlink:title=" ">
<polygon fill="white" stroke="black" points="3802,-0.5 3802,-19.5 3862,-19.5 3862,-0.5 3802,-0.5"/>
<text text-anchor="middle" x="3832" y="-7.5" font-family="Helvetica,sans-Serif" font-size="10.00">Field.cpp</text>
</a>
</g>
</g>
<!-- Node2&#45;&gt;Node5 -->
<g id="edge4" class="edge">
<title>Node2&#45;&gt;Node5</title>
<path fill="none" stroke="midnightblue" d="M2052.25,-176.77C2298.08,-175.06 3747.31,-163.67 3779,-132 3802.9,-108.12 3766.7,-86.61 3781,-56 3788.5,-39.95 3804.72,-27.26 3816.87,-19.5"/>
<polygon fill="midnightblue" stroke="midnightblue" points="2052.07,-173.27 2042.1,-176.84 2052.12,-180.27 2052.07,-173.27"/>
</g>
<!-- Node21 -->
<g id="node5" class="node">
<title>Node21</title>
<g id="a_node5"><a xlink:href="field__ops_8_h.html" target="_top" xlink:title=" ">
<polygon fill="white" stroke="red" points="565.5,-112.5 565.5,-131.5 636.5,-131.5 636.5,-112.5 565.5,-112.5"/>
<text text-anchor="middle" x="601" y="-119.5" font-family="Helvetica,sans-Serif" font-size="10.00">field_ops.H</text>
</a>
</g>
</g>
<!-- Node2&#45;&gt;Node21 -->
<g id="edge5" class="edge">
<title>Node2&#45;&gt;Node21</title>
<path fill="none" stroke="midnightblue" d="M1981.85,-176.63C1794.94,-174.55 916.07,-163.22 646,-132 642.99,-131.65 639.89,-131.21 636.78,-130.71"/>
<polygon fill="midnightblue" stroke="midnightblue" points="1981.9,-180.13 1991.94,-176.74 1981.98,-173.13 1981.9,-180.13"/>
</g>
<!-- Node57 -->
<g id="node6" class="node">
<title>Node57</title>
<g id="a_node6"><a xlink:href="_field_b_c_ops_8_h.html" target="_top" xlink:title=" ">
<polygon fill="white" stroke="red" points="4190.5,-112.5 4190.5,-131.5 4273.5,-131.5 4273.5,-112.5 4190.5,-112.5"/>
<text text-anchor="middle" x="4232" y="-119.5" font-family="Helvetica,sans-Serif" font-size="10.00">FieldBCOps.H</text>
</a>
</g>
</g>
<!-- Node2&#45;&gt;Node57 -->
<g id="edge6" class="edge">
<title>Node2&#45;&gt;Node57</title>
<path fill="none" stroke="midnightblue" d="M2052.16,-177.12C2254.14,-177.61 3287.13,-177.7 4129,-132 4149.25,-130.9 4171.7,-129.02 4190.45,-127.26"/>
<polygon fill="midnightblue" stroke="midnightblue" points="2052.14,-173.62 2042.13,-177.09 2052.12,-180.62 2052.14,-173.62"/>
</g>
<!-- Node67 -->
<g id="node7" class="node">
<title>Node67</title>
<g id="a_node7"><a xlink:href="_field_fill_patch_ops_8_h.html" target="_top" xlink:title=" ">
<polygon fill="white" stroke="red" points="4260,-56.5 4260,-75.5 4370,-75.5 4370,-56.5 4260,-56.5"/>
<text text-anchor="middle" x="4315" y="-63.5" font-family="Helvetica,sans-Serif" font-size="10.00">FieldFillPatchOps.H</text>
</a>
</g>
</g>
<!-- Node2&#45;&gt;Node67 -->
<g id="edge10" class="edge">
<title>Node2&#45;&gt;Node67</title>
<path fill="none" stroke="midnightblue" d="M2052.39,-176.81C2336.31,-175.19 4233.86,-163.26 4283,-132 4302.95,-119.31 4310.86,-90.2 4313.65,-75.64"/>
<polygon fill="midnightblue" stroke="midnightblue" points="2052.23,-173.31 2042.25,-176.86 2052.27,-180.31 2052.23,-173.31"/>
</g>
<!-- Node120 -->
<g id="node8" class="node">
<title>Node120</title>
<g id="a_node8"><a xlink:href="_field_repo_8_h.html" target="_top" xlink:title=" ">
<polygon fill="white" stroke="red" points="357.5,-112.5 357.5,-131.5 432.5,-131.5 432.5,-112.5 357.5,-112.5"/>
<text text-anchor="middle" x="395" y="-119.5" font-family="Helvetica,sans-Serif" font-size="10.00">FieldRepo.H</text>
</a>
</g>
</g>
<!-- Node2&#45;&gt;Node120 -->
<g id="edge11" class="edge">
<title>Node2&#45;&gt;Node120</title>
<path fill="none" stroke="midnightblue" d="M1981.71,-176.67C1778.84,-174.7 759.2,-163.33 447,-132 442.35,-131.53 437.49,-130.9 432.69,-130.17"/>
<polygon fill="midnightblue" stroke="midnightblue" points="1981.78,-180.17 1991.81,-176.77 1981.84,-173.18 1981.78,-180.17"/>
</g>
<!-- Node2&#45;&gt;Node280 -->
<g id="edge25" class="edge">
<title>Node2&#45;&gt;Node280</title>
<path fill="none" stroke="midnightblue" d="M1981.72,-176.9C1747.21,-176.14 417.69,-170.15 242,-132 219.82,-127.18 216.37,-119.66 195,-112 154.34,-97.43 106.42,-83.9 75.19,-75.56"/>
<polygon fill="midnightblue" stroke="midnightblue" points="1981.74,-180.4 1991.75,-176.93 1981.76,-173.4 1981.74,-180.4"/>
</g>
<!-- Node79 -->
<g id="node10" class="node">
<title>Node79</title>
<g id="a_node10"><a xlink:href="_burggraf_lid_8cpp.html" target="_top" xlink:title=" ">
<polygon fill="white" stroke="black" points="1757.5,-56.5 1757.5,-75.5 1850.5,-75.5 1850.5,-56.5 1757.5,-56.5"/>
<text text-anchor="middle" x="1804" y="-63.5" font-family="Helvetica,sans-Serif" font-size="10.00">BurggrafLid.cpp</text>
</a>
</g>
</g>
<!-- Node2&#45;&gt;Node79 -->
<g id="edge46" class="edge">
<title>Node2&#45;&gt;Node79</title>
<path fill="none" stroke="midnightblue" d="M2052.29,-177.06C2247.8,-177.2 3190.96,-175.62 3233,-132 3239.17,-125.6 3239.19,-118.38 3233,-112 3226.84,-105.64 2095.68,-74.85 1850.52,-68.25"/>
<polygon fill="midnightblue" stroke="midnightblue" points="2052.27,-173.56 2042.26,-177.05 2052.26,-180.56 2052.27,-173.56"/>
</g>
<!-- Node80 -->
<g id="node11" class="node">
<title>Node80</title>
<g id="a_node11"><a xlink:href="_custom_scalar_8cpp.html" target="_top" xlink:title=" ">
<polygon fill="white" stroke="black" points="2144,-56.5 2144,-75.5 2248,-75.5 2248,-56.5 2144,-56.5"/>
<text text-anchor="middle" x="2196" y="-63.5" font-family="Helvetica,sans-Serif" font-size="10.00">CustomScalar.cpp</text>
</a>
</g>
</g>
<!-- Node2&#45;&gt;Node80 -->
<g id="edge47" class="edge">
<title>Node2&#45;&gt;Node80</title>
<path fill="none" stroke="midnightblue" d="M2052.42,-177.1C2251.88,-177.48 3227.56,-177.03 3271,-132 3277.17,-125.6 3277.15,-118.42 3271,-112 3235.24,-74.71 2458.33,-68.27 2248.07,-67.2"/>
<polygon fill="midnightblue" stroke="midnightblue" points="2052.22,-173.6 2042.21,-177.08 2052.2,-180.6 2052.22,-173.6"/>
</g>
<!-- Node81 -->
<g id="node12" class="node">
<title>Node81</title>
<g id="a_node12"><a xlink:href="_custom_velocity_8cpp.html" target="_top" xlink:title=" ">
<polygon fill="white" stroke="black" points="2953,-56.5 2953,-75.5 3065,-75.5 3065,-56.5 2953,-56.5"/>
<text text-anchor="middle" x="3009" y="-63.5" font-family="Helvetica,sans-Serif" font-size="10.00">CustomVelocity.cpp</text>
</a>
</g>
</g>
<!-- Node2&#45;&gt;Node81 -->
<g id="edge48" class="edge">
<title>Node2&#45;&gt;Node81</title>
<path fill="none" stroke="midnightblue" d="M2052.31,-176.77C2296.95,-175.07 3731.05,-163.76 3762,-132 3768.2,-125.63 3768.1,-118.47 3762,-112 3738.16,-86.69 3235.65,-72.41 3065.07,-68.27"/>
<polygon fill="midnightblue" stroke="midnightblue" points="2052.17,-173.27 2042.19,-176.84 2052.22,-180.27 2052.17,-173.27"/>
</g>
<!-- Node324 -->
<g id="node13" class="node">
<title>Node324</title>
<g id="a_node13"><a xlink:href="_linear_profile_8cpp.html" target="_top" xlink:title=" ">
<polygon fill="white" stroke="black" points="102,-56.5 102,-75.5 200,-75.5 200,-56.5 102,-56.5"/>
<text text-anchor="middle" x="151" y="-63.5" font-family="Helvetica,sans-Serif" font-size="10.00">LinearProfile.cpp</text>
</a>
</g>
</g>
<!-- Node2&#45;&gt;Node324 -->
<g id="edge49" class="edge">
<title>Node2&#45;&gt;Node324</title>
<path fill="none" stroke="midnightblue" d="M1981.61,-176.84C1751.96,-175.72 476.97,-167.91 308,-132 253.46,-120.41 193.88,-90.5 166.43,-75.64"/>
<polygon fill="midnightblue" stroke="midnightblue" points="1981.73,-180.34 1991.75,-176.89 1981.77,-173.34 1981.73,-180.34"/>
</g>
<!-- Node82 -->
<g id="node14" class="node">
<title>Node82</title>
<g id="a_node14"><a xlink:href="_power_law_profile_8cpp.html" target="_top" xlink:title=" ">
<polygon fill="white" stroke="black" points="218.5,-56.5 218.5,-75.5 335.5,-75.5 335.5,-56.5 218.5,-56.5"/>
<text text-anchor="middle" x="277" y="-63.5" font-family="Helvetica,sans-Serif" font-size="10.00">PowerLawProfile.cpp</text>
</a>
</g>
</g>
<!-- Node2&#45;&gt;Node82 -->
<g id="edge50" class="edge">
<title>Node2&#45;&gt;Node82</title>
<path fill="none" stroke="midnightblue" d="M1981.93,-176.82C1747.67,-175.5 416.71,-166.51 339,-132 312.2,-120.1 291.33,-90.62 282.13,-75.8"/>
<polygon fill="midnightblue" stroke="midnightblue" points="1981.93,-180.32 1991.95,-176.87 1981.97,-173.32 1981.93,-180.32"/>
</g>
<!-- Node83 -->
<g id="node15" class="node">
<title>Node83</title>
<g id="a_node15"><a xlink:href="_rankine_8cpp.html" target="_top" xlink:title=" ">
<polygon fill="white" stroke="black" points="353.5,-56.5 353.5,-75.5 430.5,-75.5 430.5,-56.5 353.5,-56.5"/>
<text text-anchor="middle" x="392" y="-63.5" font-family="Helvetica,sans-Serif" font-size="10.00">Rankine.cpp</text>
</a>
</g>
</g>
<!-- Node2&#45;&gt;Node83 -->
<g id="edge51" class="edge">
<title>Node2&#45;&gt;Node83</title>
<path fill="none" stroke="midnightblue" d="M1981.76,-176.72C1743.56,-174.78 377.53,-162.33 348,-132 330.7,-114.23 360.24,-88.87 378.76,-75.7"/>
<polygon fill="midnightblue" stroke="midnightblue" points="1981.91,-180.23 1991.93,-176.81 1981.96,-173.23 1981.91,-180.23"/>
</g>
<!-- Node325 -->
<g id="node16" class="node">
<title>Node325</title>
<g id="a_node16"><a xlink:href="_u_d_f_8cpp.html" target="_top" xlink:title=" ">
<polygon fill="white" stroke="black" points="487,-56.5 487,-75.5 543,-75.5 543,-56.5 487,-56.5"/>
<text text-anchor="middle" x="515" y="-63.5" font-family="Helvetica,sans-Serif" font-size="10.00">UDF.cpp</text>
</a>
</g>
</g>
<!-- Node2&#45;&gt;Node325 -->
<g id="edge52" class="edge">
<title>Node2&#45;&gt;Node325</title>
<path fill="none" stroke="midnightblue" d="M1981.6,-177.03C1762.55,-177.11 599.39,-175.45 539,-132 520.64,-118.79 516.3,-89.93 515.29,-75.53"/>
<polygon fill="midnightblue" stroke="midnightblue" points="1981.87,-180.53 1991.87,-177.03 1981.87,-173.53 1981.87,-180.53"/>
</g>
<!-- Node192 -->
<g id="node17" class="node">
<title>Node192</title>
<g id="a_node17"><a xlink:href="_re_averaging_8cpp.html" target="_top" xlink:title=" ">
<polygon fill="white" stroke="black" points="561,-56.5 561,-75.5 659,-75.5 659,-56.5 561,-56.5"/>
<text text-anchor="middle" x="610" y="-63.5" font-family="Helvetica,sans-Serif" font-size="10.00">ReAveraging.cpp</text>
</a>
</g>
</g>
<!-- Node2&#45;&gt;Node192 -->
<g id="edge55" class="edge">
<title>Node2&#45;&gt;Node192</title>
<path fill="none" stroke="midnightblue" d="M1981.93,-176.59C1761.32,-173.96 573.78,-158.58 548,-132 528.57,-111.96 566.62,-88.17 591.27,-75.67"/>
<polygon fill="midnightblue" stroke="midnightblue" points="1981.94,-180.09 1991.98,-176.71 1982.02,-173.1 1981.94,-180.09"/>
</g>
<!-- Node193 -->
<g id="node18" class="node">
<title>Node193</title>
<g id="a_node18"><a xlink:href="_reynolds_stress_8cpp.html" target="_top" xlink:title=" ">
<polygon fill="white" stroke="black" points="677,-56.5 677,-75.5 789,-75.5 789,-56.5 677,-56.5"/>
<text text-anchor="middle" x="733" y="-63.5" font-family="Helvetica,sans-Serif" font-size="10.00">ReynoldsStress.cpp</text>
</a>
</g>
</g>
<!-- Node2&#45;&gt;Node193 -->
<g id="edge56" class="edge">
<title>Node2&#45;&gt;Node193</title>
<path fill="none" stroke="midnightblue" d="M1981.77,-176.59C1761.46,-173.92 581.62,-158.42 556,-132 549.81,-125.62 550.54,-119.02 556,-112 564.17,-101.49 637.85,-85.39 687.53,-75.57"/>
<polygon fill="midnightblue" stroke="midnightblue" points="1981.77,-180.09 1991.82,-176.71 1981.86,-173.09 1981.77,-180.09"/>
</g>
<!-- Node329 -->
<g id="node19" class="node">
<title>Node329</title>
<g id="a_node19"><a xlink:href="_multi_level_vector_8_h.html" target="_top" xlink:title=" ">
<polygon fill="white" stroke="red" points="1082,-56.5 1082,-75.5 1190,-75.5 1190,-56.5 1082,-56.5"/>
<text text-anchor="middle" x="1136" y="-63.5" font-family="Helvetica,sans-Serif" font-size="10.00">MultiLevelVector.H</text>
</a>
</g>
</g>
<!-- Node2&#45;&gt;Node329 -->
<g id="edge61" class="edge">
<title>Node2&#45;&gt;Node329</title>
<path fill="none" stroke="midnightblue" d="M2052.23,-177.02C2244.42,-176.95 3159.19,-174.39 3200,-132 3206.16,-125.6 3206.22,-118.35 3200,-112 3190.95,-102.75 1514.96,-73.51 1190.16,-67.93"/>
<polygon fill="midnightblue" stroke="midnightblue" points="2052.11,-173.52 2042.11,-177.02 2052.11,-180.52 2052.11,-173.52"/>
</g>
<!-- Node332 -->
<g id="node20" class="node">
<title>Node332</title>
<g id="a_node20"><a xlink:href="_mesh_map_8_h.html" target="_top" xlink:title=" ">
<polygon fill="white" stroke="red" points="655,-112.5 655,-131.5 729,-131.5 729,-112.5 655,-112.5"/>
<text text-anchor="middle" x="692" y="-119.5" font-family="Helvetica,sans-Serif" font-size="10.00">MeshMap.H</text>
</a>
</g>
</g>
<!-- Node2&#45;&gt;Node332 -->
<g id="edge24" class="edge">
<title>Node2&#45;&gt;Node332</title>
<path fill="none" stroke="midnightblue" d="M1981.68,-176.51C1802.07,-173.92 988.8,-160.76 738,-132 735.09,-131.67 732.09,-131.25 729.08,-130.78"/>
<polygon fill="midnightblue" stroke="midnightblue" points="1981.83,-180.02 1991.88,-176.66 1981.93,-173.02 1981.83,-180.02"/>
</g>
<!-- Node337 -->
<g id="node21" class="node">
<title>Node337</title>
<g id="a_node21"><a xlink:href="_boussinesq_bubble_8_h.html" target="_top" xlink:title=" ">
<polygon fill="white" stroke="red" points="747,-112.5 747,-131.5 863,-131.5 863,-112.5 747,-112.5"/>
<text text-anchor="middle" x="805" y="-119.5" font-family="Helvetica,sans-Serif" font-size="10.00">BoussinesqBubble.H</text>
</a>
</g>
</g>
<!-- Node2&#45;&gt;Node337 -->
<g id="edge26" class="edge">
<title>Node2&#45;&gt;Node337</title>
<path fill="none" stroke="midnightblue" d="M1981.81,-176.82C1841.51,-175.87 1308.55,-169.81 872,-132 869.08,-131.75 866.09,-131.46 863.07,-131.14"/>
<polygon fill="midnightblue" stroke="midnightblue" points="1981.94,-180.33 1991.97,-176.89 1981.99,-173.33 1981.94,-180.33"/>
</g>
<!-- Node170 -->
<g id="node22" class="node">
<title>Node170</title>
<g id="a_node22"><a xlink:href="_burggraf_flow_8_h.html" target="_top" xlink:title=" ">
<polygon fill="white" stroke="red" points="881,-112.5 881,-131.5 973,-131.5 973,-112.5 881,-112.5"/>
<text text-anchor="middle" x="927" y="-119.5" font-family="Helvetica,sans-Serif" font-size="10.00">BurggrafFlow.H</text>
</a>
</g>
</g>
<!-- Node2&#45;&gt;Node170 -->
<g id="edge27" class="edge">
<title>Node2&#45;&gt;Node170</title>
<path fill="none" stroke="midnightblue" d="M1981.35,-176.98C1848.84,-176.58 1372.23,-172.27 982,-132 979.11,-131.7 976.15,-131.35 973.16,-130.96"/>
<polygon fill="midnightblue" stroke="midnightblue" points="1981.69,-180.48 1991.7,-177.01 1981.71,-173.48 1981.69,-180.48"/>
</g>
<!-- Node65 -->
<g id="node23" class="node">
<title>Node65</title>
<g id="a_node23"><a xlink:href="_channel_flow_8_h.html" target="_top" xlink:title=" ">
<polygon fill="white" stroke="red" points="991.5,-112.5 991.5,-131.5 1080.5,-131.5 1080.5,-112.5 991.5,-112.5"/>
<text text-anchor="middle" x="1036" y="-119.5" font-family="Helvetica,sans-Serif" font-size="10.00">ChannelFlow.H</text>
</a>
</g>
</g>
<!-- Node2&#45;&gt;Node65 -->
<g id="edge28" class="edge">
<title>Node2&#45;&gt;Node65</title>
<path fill="none" stroke="midnightblue" d="M1981.45,-176.81C1857.82,-175.81 1435.34,-169.67 1089,-132 1086.31,-131.71 1083.55,-131.37 1080.77,-130.99"/>
<polygon fill="midnightblue" stroke="midnightblue" points="1981.79,-180.31 1991.81,-176.88 1981.84,-173.31 1981.79,-180.31"/>
</g>
<!-- Node172 -->
<g id="node24" class="node">
<title>Node172</title>
<g id="a_node24"><a xlink:href="_convecting_taylor_vortex_8_h.html" target="_top" xlink:title=" ">
<polygon fill="white" stroke="red" points="1098.5,-112.5 1098.5,-131.5 1241.5,-131.5 1241.5,-112.5 1098.5,-112.5"/>
<text text-anchor="middle" x="1170" y="-119.5" font-family="Helvetica,sans-Serif" font-size="10.00">ConvectingTaylorVortex.H</text>
</a>
</g>
</g>
<!-- Node2&#45;&gt;Node172 -->
<g id="edge29" class="edge">
<title>Node2&#45;&gt;Node172</title>
<path fill="none" stroke="midnightblue" d="M1981.7,-175.6C1872.67,-171.14 1531.68,-156.09 1250,-132 1247.21,-131.76 1244.38,-131.51 1241.51,-131.24"/>
<polygon fill="midnightblue" stroke="midnightblue" points="1981.67,-179.1 1991.81,-176.01 1981.96,-172.11 1981.67,-179.1"/>
</g>
<!-- Node174 -->
<g id="node25" class="node">
<title>Node174</title>
<g id="a_node25"><a xlink:href="_ekman_spiral_8_h.html" target="_top" xlink:title=" ">
<polygon fill="white" stroke="red" points="1259.5,-112.5 1259.5,-131.5 1348.5,-131.5 1348.5,-112.5 1259.5,-112.5"/>
<text text-anchor="middle" x="1304" y="-119.5" font-family="Helvetica,sans-Serif" font-size="10.00">EkmanSpiral.H</text>
</a>
</g>
</g>
<!-- Node2&#45;&gt;Node174 -->
<g id="edge30" class="edge">
<title>Node2&#45;&gt;Node174</title>
<path fill="none" stroke="midnightblue" d="M1981.69,-175.84C1882.78,-172.31 1594.68,-160.21 1357,-132 1354.31,-131.68 1351.55,-131.32 1348.77,-130.93"/>
<polygon fill="midnightblue" stroke="midnightblue" points="1981.62,-179.34 1991.74,-176.19 1981.87,-172.34 1981.62,-179.34"/>
</g>
<!-- Node338 -->
<g id="node26" class="node">
<title>Node338</title>
<g id="a_node26"><a xlink:href="_free_stream_8_h.html" target="_top" xlink:title=" ">
<polygon fill="white" stroke="red" points="1366.5,-112.5 1366.5,-131.5 1449.5,-131.5 1449.5,-112.5 1366.5,-112.5"/>
<text text-anchor="middle" x="1408" y="-119.5" font-family="Helvetica,sans-Serif" font-size="10.00">FreeStream.H</text>
</a>
</g>
</g>
<!-- Node2&#45;&gt;Node338 -->
<g id="edge31" class="edge">
<title>Node2&#45;&gt;Node338</title>
<path fill="none" stroke="midnightblue" d="M1981.82,-175.36C1893.45,-171 1655.16,-157.62 1458,-132 1455.29,-131.65 1452.5,-131.25 1449.69,-130.82"/>
<polygon fill="midnightblue" stroke="midnightblue" points="1981.68,-178.86 1991.84,-175.85 1982.02,-171.87 1981.68,-178.86"/>
</g>
<!-- Node176 -->
<g id="node27" class="node">
<title>Node176</title>
<g id="a_node27"><a xlink:href="_hybrid_r_a_n_s_l_e_s_a_b_l_8_h.html" target="_top" xlink:title=" ">
<polygon fill="white" stroke="red" points="1467.5,-112.5 1467.5,-131.5 1590.5,-131.5 1590.5,-112.5 1467.5,-112.5"/>
<text text-anchor="middle" x="1529" y="-119.5" font-family="Helvetica,sans-Serif" font-size="10.00">HybridRANSLESABL.H</text>
</a>
</g>
</g>
<!-- Node2&#45;&gt;Node176 -->
<g id="edge32" class="edge">
<title>Node2&#45;&gt;Node176</title>
<path fill="none" stroke="midnightblue" d="M1981.18,-173.39C1908.87,-166.06 1740.34,-148.69 1599,-132 1596.32,-131.68 1593.59,-131.36 1590.83,-131.02"/>
<polygon fill="midnightblue" stroke="midnightblue" points="1981.23,-176.92 1991.53,-174.44 1981.94,-169.95 1981.23,-176.92"/>
</g>
<!-- Node178 -->
<g id="node28" class="node">
<title>Node178</title>
<g id="a_node28"><a xlink:href="_m_m_s_8_h.html" target="_top" xlink:title=" ">
<polygon fill="white" stroke="red" points="1608.5,-112.5 1608.5,-131.5 1659.5,-131.5 1659.5,-112.5 1608.5,-112.5"/>
<text text-anchor="middle" x="1634" y="-119.5" font-family="Helvetica,sans-Serif" font-size="10.00">MMS.H</text>
</a>
</g>
</g>
<!-- Node2&#45;&gt;Node178 -->
<g id="edge33" class="edge">
<title>Node2&#45;&gt;Node178</title>
<path fill="none" stroke="midnightblue" d="M1981.62,-173.98C1918.31,-168.23 1781.63,-154.27 1668,-132 1665.24,-131.46 1662.38,-130.82 1659.54,-130.14"/>
<polygon fill="midnightblue" stroke="midnightblue" points="1981.58,-177.49 1991.85,-174.89 1982.2,-170.52 1981.58,-177.49"/>
</g>
<!-- Node339 -->
<g id="node29" class="node">
<title>Node339</title>
<g id="a_node29"><a xlink:href="_dam_break_8_h.html" target="_top" xlink:title=" ">
<polygon fill="white" stroke="red" points="1677.5,-112.5 1677.5,-131.5 1756.5,-131.5 1756.5,-112.5 1677.5,-112.5"/>
<text text-anchor="middle" x="1717" y="-119.5" font-family="Helvetica,sans-Serif" font-size="10.00">DamBreak.H</text>
</a>
</g>
</g>
<!-- Node2&#45;&gt;Node339 -->
<g id="edge34" class="edge">
<title>Node2&#45;&gt;Node339</title>
<path fill="none" stroke="midnightblue" d="M1981.7,-170.72C1933.11,-162.06 1842.9,-145.96 1766,-132 1762.94,-131.44 1759.77,-130.87 1756.58,-130.28"/>
<polygon fill="midnightblue" stroke="midnightblue" points="1981.24,-174.19 1991.7,-172.5 1982.47,-167.3 1981.24,-174.19"/>
</g>
<!-- Node340 -->
<g id="node30" class="node">
<title>Node340</title>
<g id="a_node30"><a xlink:href="_multi_phase_8_h.html" target="_top" xlink:title=" ">
<polygon fill="white" stroke="red" points="105.5,-112.5 105.5,-131.5 186.5,-131.5 186.5,-112.5 105.5,-112.5"/>
<text text-anchor="middle" x="146" y="-119.5" font-family="Helvetica,sans-Serif" font-size="10.00">MultiPhase.H</text>
</a>
</g>
</g>
<!-- Node2&#45;&gt;Node340 -->
<g id="edge35" class="edge">
<title>Node2&#45;&gt;Node340</title>
<path fill="none" stroke="midnightblue" d="M1981.93,-176.79C1761.52,-175.37 565.35,-166.16 201,-132 196.38,-131.57 191.55,-130.98 186.77,-130.31"/>
<polygon fill="midnightblue" stroke="midnightblue" points="1981.94,-180.29 1991.96,-176.85 1981.98,-173.29 1981.94,-180.29"/>
</g>
<!-- Node341 -->
<g id="node31" class="node">
<title>Node341</title>
<g id="a_node31"><a xlink:href="_rain_drop_8_h.html" target="_top" xlink:title=" ">
<polygon fill="white" stroke="red" points="1775,-112.5 1775,-131.5 1847,-131.5 1847,-112.5 1775,-112.5"/>
<text text-anchor="middle" x="1811" y="-119.5" font-family="Helvetica,sans-Serif" font-size="10.00">RainDrop.H</text>
</a>
</g>
</g>
<!-- Node2&#45;&gt;Node341 -->
<g id="edge36" class="edge">
<title>Node2&#45;&gt;Node341</title>
<path fill="none" stroke="midnightblue" d="M1981.94,-167.81C1943.21,-157.66 1881.32,-141.43 1843.6,-131.55"/>
<polygon fill="midnightblue" stroke="midnightblue" points="1981.18,-171.23 1991.74,-170.38 1982.95,-164.46 1981.18,-171.23"/>
</g>
<!-- Node342 -->
<g id="node32" class="node">
<title>Node342</title>
<g id="a_node32"><a xlink:href="_sloshing_tank_8_h.html" target="_top" xlink:title=" ">
<polygon fill="white" stroke="red" points="1865.5,-112.5 1865.5,-131.5 1956.5,-131.5 1956.5,-112.5 1865.5,-112.5"/>
<text text-anchor="middle" x="1911" y="-119.5" font-family="Helvetica,sans-Serif" font-size="10.00">SloshingTank.H</text>
</a>
</g>
</g>
<!-- Node2&#45;&gt;Node342 -->
<g id="edge37" class="edge">
<title>Node2&#45;&gt;Node342</title>
<path fill="none" stroke="midnightblue" d="M1990.94,-163.73C1971.32,-153.73 1944.97,-140.31 1927.99,-131.65"/>
<polygon fill="midnightblue" stroke="midnightblue" points="1989.47,-166.9 1999.97,-168.32 1992.65,-160.67 1989.47,-166.9"/>
</g>
<!-- Node343 -->
<g id="node33" class="node">
<title>Node343</title>
<g id="a_node33"><a xlink:href="_vortex_patch_8_h.html" target="_top" xlink:title=" ">
<polygon fill="white" stroke="red" points="1974.5,-112.5 1974.5,-131.5 2059.5,-131.5 2059.5,-112.5 1974.5,-112.5"/>
<text text-anchor="middle" x="2017" y="-119.5" font-family="Helvetica,sans-Serif" font-size="10.00">VortexPatch.H</text>
</a>
</g>
</g>
<!-- Node2&#45;&gt;Node343 -->
<g id="edge38" class="edge">
<title>Node2&#45;&gt;Node343</title>
<path fill="none" stroke="midnightblue" d="M2017,-157.8C2017,-148.91 2017,-138.78 2017,-131.75"/>
<polygon fill="midnightblue" stroke="midnightblue" points="2013.5,-158.08 2017,-168.08 2020.5,-158.08 2013.5,-158.08"/>
</g>
<!-- Node344 -->
<g id="node34" class="node">
<title>Node344</title>
<g id="a_node34"><a xlink:href="_vortex_patch_scalar_vel_8_h.html" target="_top" xlink:title=" ">
<polygon fill="white" stroke="red" points="2078,-112.5 2078,-131.5 2208,-131.5 2208,-112.5 2078,-112.5"/>
<text text-anchor="middle" x="2143" y="-119.5" font-family="Helvetica,sans-Serif" font-size="10.00">VortexPatchScalarVel.H</text>
</a>
</g>
</g>
<!-- Node2&#45;&gt;Node344 -->
<g id="edge39" class="edge">
<title>Node2&#45;&gt;Node344</title>
<path fill="none" stroke="midnightblue" d="M2046.16,-164.5C2069.78,-154.38 2102.43,-140.39 2123.13,-131.52"/>
<polygon fill="midnightblue" stroke="midnightblue" points="2044.78,-161.29 2036.97,-168.44 2047.54,-167.72 2044.78,-161.29"/>
</g>
<!-- Node345 -->
<g id="node35" class="node">
<title>Node345</title>
<g id="a_node35"><a xlink:href="_zalesak_disk_8_h.html" target="_top" xlink:title=" ">
<polygon fill="white" stroke="red" points="2226,-112.5 2226,-131.5 2314,-131.5 2314,-112.5 2226,-112.5"/>
<text text-anchor="middle" x="2270" y="-119.5" font-family="Helvetica,sans-Serif" font-size="10.00">ZalesakDisk.H</text>
</a>
</g>
</g>
<!-- Node2&#45;&gt;Node345 -->
<g id="edge40" class="edge">
<title>Node2&#45;&gt;Node345</title>
<path fill="none" stroke="midnightblue" d="M2052.13,-169.5C2098.81,-159.54 2181.06,-141.98 2230.05,-131.53"/>
<polygon fill="midnightblue" stroke="midnightblue" points="2051.23,-166.11 2042.18,-171.62 2052.69,-172.96 2051.23,-166.11"/>
</g>
<!-- Node346 -->
<g id="node36" class="node">
<title>Node346</title>
<g id="a_node36"><a xlink:href="_zalesak_disk_scalar_vel_8_h.html" target="_top" xlink:title=" ">
<polygon fill="white" stroke="red" points="2332.5,-112.5 2332.5,-131.5 2465.5,-131.5 2465.5,-112.5 2332.5,-112.5"/>
<text text-anchor="middle" x="2399" y="-119.5" font-family="Helvetica,sans-Serif" font-size="10.00">ZalesakDiskScalarVel.H</text>
</a>
</g>
</g>
<!-- Node2&#45;&gt;Node346 -->
<g id="edge41" class="edge">
<title>Node2&#45;&gt;Node346</title>
<path fill="none" stroke="midnightblue" d="M2052.25,-172.02C2117.57,-162.78 2258.08,-142.92 2338.75,-131.52"/>
<polygon fill="midnightblue" stroke="midnightblue" points="2051.48,-168.59 2042.06,-173.46 2052.46,-175.52 2051.48,-168.59"/>
</g>
<!-- Node347 -->
<g id="node37" class="node">
<title>Node347</title>
<g id="a_node37"><a xlink:href="_rayleigh_taylor_8_h.html" target="_top" xlink:title=" ">
<polygon fill="white" stroke="red" points="2484,-112.5 2484,-131.5 2582,-131.5 2582,-112.5 2484,-112.5"/>
<text text-anchor="middle" x="2533" y="-119.5" font-family="Helvetica,sans-Serif" font-size="10.00">RayleighTaylor.H</text>
</a>
</g>
</g>
<!-- Node2&#45;&gt;Node347 -->
<g id="edge42" class="edge">
<title>Node2&#45;&gt;Node347</title>
<path fill="none" stroke="midnightblue" d="M2052.14,-174.18C2128.86,-167.89 2317.04,-151.68 2474,-132 2477.19,-131.6 2480.47,-131.17 2483.77,-130.71"/>
<polygon fill="midnightblue" stroke="midnightblue" points="2051.75,-170.7 2042.07,-175 2052.32,-177.68 2051.75,-170.7"/>
</g>
<!-- Node348 -->
<g id="node38" class="node">
<title>Node348</title>
<g id="a_node38"><a xlink:href="_scalar_advection_8_h.html" target="_top" xlink:title=" ">
<polygon fill="white" stroke="red" points="2600,-112.5 2600,-131.5 2706,-131.5 2706,-112.5 2600,-112.5"/>
<text text-anchor="middle" x="2653" y="-119.5" font-family="Helvetica,sans-Serif" font-size="10.00">ScalarAdvection.H</text>
</a>
</g>
</g>
<!-- Node2&#45;&gt;Node348 -->
<g id="edge43" class="edge">
<title>Node2&#45;&gt;Node348</title>
<path fill="none" stroke="midnightblue" d="M2052.44,-175.04C2142.55,-169.87 2387.67,-154.7 2591,-132 2593.92,-131.67 2596.91,-131.32 2599.93,-130.94"/>
<polygon fill="midnightblue" stroke="midnightblue" points="2052.02,-171.56 2042.23,-175.62 2052.42,-178.54 2052.02,-171.56"/>
</g>
<!-- Node187 -->
<g id="node39" class="node">
<title>Node187</title>
<g id="a_node39"><a xlink:href="_synthetic_turbulence_8_h.html" target="_top" xlink:title=" ">
<polygon fill="white" stroke="red" points="2724.5,-112.5 2724.5,-131.5 2849.5,-131.5 2849.5,-112.5 2724.5,-112.5"/>
<text text-anchor="middle" x="2787" y="-119.5" font-family="Helvetica,sans-Serif" font-size="10.00">SyntheticTurbulence.H</text>
</a>
</g>
</g>
<!-- Node2&#45;&gt;Node187 -->
<g id="edge44" class="edge">
<title>Node2&#45;&gt;Node187</title>
<path fill="none" stroke="midnightblue" d="M2052.18,-175.48C2154.58,-170.89 2461.34,-156.01 2715,-132 2718.01,-131.72 2721.09,-131.4 2724.2,-131.08"/>
<polygon fill="midnightblue" stroke="midnightblue" points="2051.92,-171.99 2042.08,-175.93 2052.23,-178.98 2051.92,-171.99"/>
</g>
<!-- Node349 -->
<g id="node40" class="node">
<title>Node349</title>
<g id="a_node40"><a xlink:href="_taylor_green_vortex_8_h.html" target="_top" xlink:title=" ">
<polygon fill="white" stroke="red" points="2867.5,-112.5 2867.5,-131.5 2984.5,-131.5 2984.5,-112.5 2867.5,-112.5"/>
<text text-anchor="middle" x="2926" y="-119.5" font-family="Helvetica,sans-Serif" font-size="10.00">TaylorGreenVortex.H</text>
</a>
</g>
</g>
<!-- Node2&#45;&gt;Node349 -->
<g id="edge45" class="edge">
<title>Node2&#45;&gt;Node349</title>
<path fill="none" stroke="midnightblue" d="M2052.22,-176.1C2167.85,-172.94 2546.34,-160.92 2858,-132 2861.08,-131.71 2864.24,-131.39 2867.43,-131.05"/>
<polygon fill="midnightblue" stroke="midnightblue" points="2052.07,-172.6 2042.16,-176.37 2052.25,-179.6 2052.07,-172.6"/>
</g>
<!-- Node350 -->
<g id="node41" class="node">
<title>Node350</title>
<g id="a_node41"><a xlink:href="_vortex_dipole_8_h.html" target="_top" xlink:title=" ">
<polygon fill="white" stroke="red" points="3003,-112.5 3003,-131.5 3093,-131.5 3093,-112.5 3003,-112.5"/>
<text text-anchor="middle" x="3048" y="-119.5" font-family="Helvetica,sans-Serif" font-size="10.00">VortexDipole.H</text>
</a>
</g>
</g>
<!-- Node2&#45;&gt;Node350 -->
<g id="edge53" class="edge">
<title>Node2&#45;&gt;Node350</title>
<path fill="none" stroke="midnightblue" d="M2052.69,-176.85C2180.48,-175.99 2627.03,-170.25 2993,-132 2996.18,-131.67 2999.45,-131.27 3002.74,-130.83"/>
<polygon fill="midnightblue" stroke="midnightblue" points="2052.32,-173.35 2042.34,-176.91 2052.36,-180.35 2052.32,-173.35"/>
</g>
<!-- Node351 -->
<g id="node42" class="node">
<title>Node351</title>
<g id="a_node42"><a xlink:href="_vortex_ring_8_h.html" target="_top" xlink:title=" ">
<polygon fill="white" stroke="red" points="3111,-112.5 3111,-131.5 3191,-131.5 3191,-112.5 3111,-112.5"/>
<text text-anchor="middle" x="3151" y="-119.5" font-family="Helvetica,sans-Serif" font-size="10.00">VortexRing.H</text>
</a>
</g>
</g>
<!-- Node2&#45;&gt;Node351 -->
<g id="edge54" class="edge">
<title>Node2&#45;&gt;Node351</title>
<path fill="none" stroke="midnightblue" d="M2052.6,-177.33C2189.05,-178.22 2691.56,-177.98 3102,-132 3104.92,-131.67 3107.93,-131.27 3110.96,-130.83"/>
<polygon fill="midnightblue" stroke="midnightblue" points="2052.36,-173.83 2042.33,-177.26 2052.31,-180.83 2052.36,-173.83"/>
</g>
<!-- Node203 -->
<g id="node43" class="node">
<title>Node203</title>
<g id="a_node43"><a xlink:href="_field_plane_averaging_8_h.html" target="_top" xlink:title=" ">
<polygon fill="white" stroke="red" points="3924,-112.5 3924,-131.5 4050,-131.5 4050,-112.5 3924,-112.5"/>
<text text-anchor="middle" x="3987" y="-119.5" font-family="Helvetica,sans-Serif" font-size="10.00">FieldPlaneAveraging.H</text>
</a>
</g>
</g>
<!-- Node2&#45;&gt;Node203 -->
<g id="edge57" class="edge">
<title>Node2&#45;&gt;Node203</title>
<path fill="none" stroke="midnightblue" d="M2052.46,-176.61C2279.21,-174.02 3528.87,-158.75 3910,-132 3914.43,-131.69 3919,-131.31 3923.59,-130.88"/>
<polygon fill="midnightblue" stroke="midnightblue" points="2052.11,-173.11 2042.15,-176.72 2052.18,-180.11 2052.11,-173.11"/>
</g>
<!-- Node208 -->
<g id="node44" class="node">
<title>Node208</title>
<g id="a_node44"><a xlink:href="_second_moment_averaging_8_h.html" target="_top" xlink:title=" ">
<polygon fill="white" stroke="red" points="3892,-56.5 3892,-75.5 4044,-75.5 4044,-56.5 3892,-56.5"/>
<text text-anchor="middle" x="3968" y="-63.5" font-family="Helvetica,sans-Serif" font-size="10.00">SecondMomentAveraging.H</text>
</a>
</g>
</g>
<!-- Node2&#45;&gt;Node208 -->
<g id="edge63" class="edge">
<title>Node2&#45;&gt;Node208</title>
<path fill="none" stroke="midnightblue" d="M2052.41,-177.16C2292.14,-178.14 3673.47,-181.59 3853,-132 3894.78,-120.46 3937.55,-90.53 3957.08,-75.66"/>
<polygon fill="midnightblue" stroke="midnightblue" points="2052.19,-173.66 2042.17,-177.12 2052.16,-180.66 2052.19,-173.66"/>
</g>
<!-- Node210 -->
<g id="node45" class="node">
<title>Node210</title>
<g id="a_node45"><a xlink:href="_third_moment_averaging_8_h.html" target="_top" xlink:title=" ">
<polygon fill="white" stroke="red" points="4062.5,-56.5 4062.5,-75.5 4203.5,-75.5 4203.5,-56.5 4062.5,-56.5"/>
<text text-anchor="middle" x="4133" y="-63.5" font-family="Helvetica,sans-Serif" font-size="10.00">ThirdMomentAveraging.H</text>
</a>
</g>
</g>
<!-- Node2&#45;&gt;Node210 -->
<g id="edge64" class="edge">
<title>Node2&#45;&gt;Node210</title>
<path fill="none" stroke="midnightblue" d="M2052.36,-176.91C2315.56,-176.15 3961.74,-169.88 4059,-132 4088.96,-120.33 4114.82,-90.75 4126.45,-75.85"/>
<polygon fill="midnightblue" stroke="midnightblue" points="2052.21,-173.41 2042.22,-176.94 2052.23,-180.41 2052.21,-173.41"/>
</g>
<!-- Node212 -->
<g id="node46" class="node">
<title>Node212</title>
<g id="a_node46"><a xlink:href="_field_plane_averaging_fine_8_h.html" target="_top" xlink:title=" ">
<polygon fill="white" stroke="red" points="3323,-112.5 3323,-131.5 3469,-131.5 3469,-112.5 3323,-112.5"/>
<text text-anchor="middle" x="3396" y="-119.5" font-family="Helvetica,sans-Serif" font-size="10.00">FieldPlaneAveragingFine.H</text>
</a>
</g>
</g>
<!-- Node2&#45;&gt;Node212 -->
<g id="edge60" class="edge">
<title>Node2&#45;&gt;Node212</title>
<path fill="none" stroke="midnightblue" d="M2052.17,-176.66C2203.11,-174.99 2811,-166.39 3309,-132 3313.54,-131.69 3318.22,-131.32 3322.93,-130.92"/>
<polygon fill="midnightblue" stroke="midnightblue" points="2052.06,-173.16 2042.1,-176.76 2052.13,-180.16 2052.06,-173.16"/>
</g>
<!-- Node202 -->
<g id="node47" class="node">
<title>Node202</title>
<g id="a_node47"><a xlink:href="_sampling_container_8cpp.html" target="_top" xlink:title=" ">
<polygon fill="white" stroke="black" points="3487.5,-112.5 3487.5,-131.5 3616.5,-131.5 3616.5,-112.5 3487.5,-112.5"/>
<text text-anchor="middle" x="3552" y="-119.5" font-family="Helvetica,sans-Serif" font-size="10.00">SamplingContainer.cpp</text>
</a>
</g>
</g>
<!-- Node2&#45;&gt;Node202 -->
<g id="edge62" class="edge">
<title>Node2&#45;&gt;Node202</title>
<path fill="none" stroke="midnightblue" d="M2052.45,-177.09C2215.58,-177.24 2910.33,-175.17 3478,-132 3481.1,-131.76 3484.26,-131.49 3487.46,-131.2"/>
<polygon fill="midnightblue" stroke="midnightblue" points="2052.06,-173.59 2042.06,-177.07 2052.05,-180.59 2052.06,-173.59"/>
</g>
<!-- Node240 -->
<g id="node48" class="node">
<title>Node240</title>
<g id="a_node48"><a xlink:href="_a_b_l_boundary_plane_8_h.html" target="_top" xlink:title=" ">
<polygon fill="white" stroke="red" points="3634.5,-112.5 3634.5,-131.5 3753.5,-131.5 3753.5,-112.5 3634.5,-112.5"/>
<text text-anchor="middle" x="3694" y="-119.5" font-family="Helvetica,sans-Serif" font-size="10.00">ABLBoundaryPlane.H</text>
</a>
</g>
</g>
<!-- Node2&#45;&gt;Node240 -->
<g id="edge65" class="edge">
<title>Node2&#45;&gt;Node240</title>
<path fill="none" stroke="midnightblue" d="M2052.11,-177.34C2224.2,-178.72 2995.75,-181.71 3625,-132 3628.01,-131.76 3631.09,-131.48 3634.2,-131.18"/>
<polygon fill="midnightblue" stroke="midnightblue" points="2052.12,-173.84 2042.09,-177.25 2052.06,-180.84 2052.12,-173.84"/>
</g>
<!-- Node3&#45;&gt;Node5 -->
<g id="edge3" class="edge">
<title>Node3&#45;&gt;Node5</title>
<path fill="none" stroke="midnightblue" d="M3832,-45.8C3832,-36.91 3832,-26.78 3832,-19.75"/>
<polygon fill="midnightblue" stroke="midnightblue" points="3828.5,-46.08 3832,-56.08 3835.5,-46.08 3828.5,-46.08"/>
</g>
<!-- Node57&#45;&gt;Node5 -->
<g id="edge7" class="edge">
<title>Node57&#45;&gt;Node5</title>
<path fill="none" stroke="midnightblue" d="M4231.81,-102.12C4230.57,-87.26 4226.31,-67.25 4213,-56 4160.24,-11.38 3942.7,-9.53 3862.16,-10.43"/>
<polygon fill="midnightblue" stroke="midnightblue" points="4228.32,-102.41 4232.26,-112.25 4235.31,-102.1 4228.32,-102.41"/>
</g>
<!-- Node57&#45;&gt;Node67 -->
<g id="edge8" class="edge">
<title>Node57&#45;&gt;Node67</title>
<path fill="none" stroke="midnightblue" d="M4254.1,-106.62C4269.26,-96.76 4288.88,-83.99 4301.7,-75.65"/>
<polygon fill="midnightblue" stroke="midnightblue" points="4251.81,-103.94 4245.34,-112.32 4255.63,-109.8 4251.81,-103.94"/>
</g>
<!-- Node67&#45;&gt;Node5 -->
<g id="edge9" class="edge">
<title>Node67&#45;&gt;Node5</title>
<path fill="none" stroke="midnightblue" d="M4249.36,-56.4C4248.23,-56.27 4247.11,-56.13 4246,-56 4102.43,-38.84 3930.5,-21.02 3862.15,-14.05"/>
<polygon fill="midnightblue" stroke="midnightblue" points="4249.3,-59.92 4259.65,-57.67 4250.16,-52.98 4249.3,-59.92"/>
</g>
<!-- Node120&#45;&gt;Node5 -->
<g id="edge12" class="edge">
<title>Node120&#45;&gt;Node5</title>
<path fill="none" stroke="midnightblue" d="M409.58,-104.57C424.83,-88.72 450.37,-65.74 478,-56 560.92,-26.77 3473.71,-12.64 3801.99,-11.13"/>
<polygon fill="midnightblue" stroke="midnightblue" points="406.83,-102.39 402.59,-112.1 411.96,-107.15 406.83,-102.39"/>
</g>
<!-- Node120&#45;&gt;Node280 -->
<g id="edge13" class="edge">
<title>Node120&#45;&gt;Node280</title>
<path fill="none" stroke="midnightblue" d="M347.05,-114.26C287.43,-105.78 182.58,-90.58 93,-76 90.07,-75.52 87.05,-75.02 84.01,-74.51"/>
<polygon fill="midnightblue" stroke="midnightblue" points="346.89,-117.77 357.28,-115.71 347.88,-110.84 346.89,-117.77"/>
</g>
<!-- Node120&#45;&gt;Node79 -->
<g id="edge14" class="edge">
<title>Node120&#45;&gt;Node79</title>
<path fill="none" stroke="midnightblue" d="M442.71,-118.08C474.74,-116.19 517.9,-113.75 556,-112 1024.62,-90.46 1592.63,-73.18 1757.24,-68.35"/>
<polygon fill="midnightblue" stroke="midnightblue" points="442.5,-114.59 432.72,-118.68 442.91,-121.58 442.5,-114.59"/>
</g>
<!-- Node120&#45;&gt;Node80 -->
<g id="edge15" class="edge">
<title>Node120&#45;&gt;Node80</title>
<path fill="none" stroke="midnightblue" d="M442.71,-117.98C474.74,-116.03 517.89,-113.59 556,-112 637.06,-108.62 1873.25,-75.6 2143.9,-68.39"/>
<polygon fill="midnightblue" stroke="midnightblue" points="442.49,-114.48 432.72,-118.59 442.92,-121.47 442.49,-114.48"/>
</g>
<!-- Node120&#45;&gt;Node81 -->
<g id="edge16" class="edge">
<title>Node120&#45;&gt;Node81</title>
<path fill="none" stroke="midnightblue" d="M442.7,-117.86C474.73,-115.87 517.88,-113.41 556,-112 1045.23,-93.84 2633.74,-72.01 2952.86,-67.74"/>
<polygon fill="midnightblue" stroke="midnightblue" points="442.48,-114.37 432.72,-118.49 442.92,-121.36 442.48,-114.37"/>
</g>
<!-- Node120&#45;&gt;Node324 -->
<g id="edge17" class="edge">
<title>Node120&#45;&gt;Node324</title>
<path fill="none" stroke="midnightblue" d="M347.36,-110.46C301.23,-100.25 232.17,-84.96 189.44,-75.51"/>
<polygon fill="midnightblue" stroke="midnightblue" points="346.89,-113.94 357.41,-112.68 348.4,-107.1 346.89,-113.94"/>
</g>
<!-- Node120&#45;&gt;Node82 -->
<g id="edge18" class="edge">
<title>Node120&#45;&gt;Node82</title>
<path fill="none" stroke="midnightblue" d="M367.1,-108.23C345.03,-98.13 314.82,-84.31 295.61,-75.52"/>
<polygon fill="midnightblue" stroke="midnightblue" points="365.75,-111.46 376.3,-112.44 368.67,-105.1 365.75,-111.46"/>
</g>
<!-- Node120&#45;&gt;Node83 -->
<g id="edge19" class="edge">
<title>Node120&#45;&gt;Node83</title>
<path fill="none" stroke="midnightblue" d="M393.93,-101.8C393.44,-92.91 392.88,-82.78 392.49,-75.75"/>
<polygon fill="midnightblue" stroke="midnightblue" points="390.46,-102.29 394.5,-112.08 397.44,-101.9 390.46,-102.29"/>
</g>
<!-- Node120&#45;&gt;Node325 -->
<g id="edge20" class="edge">
<title>Node120&#45;&gt;Node325</title>
<path fill="none" stroke="midnightblue" d="M423.37,-108.23C445.82,-98.13 476.54,-84.31 496.07,-75.52"/>
<polygon fill="midnightblue" stroke="midnightblue" points="421.7,-105.15 414.01,-112.44 424.57,-111.53 421.7,-105.15"/>
</g>
<!-- Node120&#45;&gt;Node192 -->
<g id="edge21" class="edge">
<title>Node120&#45;&gt;Node192</title>
<path fill="none" stroke="midnightblue" d="M438.96,-109.96C479.57,-99.76 539.04,-84.82 576.09,-75.52"/>
<polygon fill="midnightblue" stroke="midnightblue" points="437.91,-106.61 429.07,-112.44 439.62,-113.4 437.91,-106.61"/>
</g>
<!-- Node120&#45;&gt;Node193 -->
<g id="edge22" class="edge">
<title>Node120&#45;&gt;Node193</title>
<path fill="none" stroke="midnightblue" d="M442.78,-113.37C505.29,-103.38 614.52,-85.93 679.67,-75.52"/>
<polygon fill="midnightblue" stroke="midnightblue" points="442.11,-109.93 432.79,-114.96 443.22,-116.84 442.11,-109.93"/>
</g>
<!-- Node120&#45;&gt;Node329 -->
<g id="edge23" class="edge">
<title>Node120&#45;&gt;Node329</title>
<path fill="none" stroke="midnightblue" d="M442.68,-117.53C574.43,-107.92 942.86,-81.07 1081.93,-70.94"/>
<polygon fill="midnightblue" stroke="midnightblue" points="442.23,-114.05 432.51,-118.27 442.74,-121.03 442.23,-114.05"/>
</g>
<!-- Node203&#45;&gt;Node208 -->
<g id="edge58" class="edge">
<title>Node203&#45;&gt;Node208</title>
<path fill="none" stroke="midnightblue" d="M3980.45,-102.4C3977.28,-93.36 3973.61,-82.94 3971.08,-75.75"/>
<polygon fill="midnightblue" stroke="midnightblue" points="3977.24,-103.81 3983.86,-112.08 3983.85,-101.49 3977.24,-103.81"/>
</g>
<!-- Node203&#45;&gt;Node210 -->
<g id="edge59" class="edge">
<title>Node203&#45;&gt;Node210</title>
<path fill="none" stroke="midnightblue" d="M4019.7,-108.91C4047.15,-98.75 4085.67,-84.51 4109.97,-75.52"/>
<polygon fill="midnightblue" stroke="midnightblue" points="4018.3,-105.69 4010.13,-112.44 4020.73,-112.26 4018.3,-105.69"/>
</g>
<!-- Node356&#45;&gt;Node120 -->
<g id="edge67" class="edge">
<title>Node356&#45;&gt;Node120</title>
<path fill="none" stroke="midnightblue" d="M350.75,-161.54C361.81,-151.91 375.63,-139.87 384.86,-131.83"/>
<polygon fill="midnightblue" stroke="midnightblue" points="348.2,-159.12 342.96,-168.32 352.8,-164.4 348.2,-159.12"/>
</g>
<!-- Node357&#45;&gt;Node120 -->
<g id="edge69" class="edge">
<title>Node357&#45;&gt;Node120</title>
<path fill="none" stroke="midnightblue" d="M221.31,-166.02C262.49,-155.82 322.97,-140.84 360.62,-131.52"/>
<polygon fill="midnightblue" stroke="midnightblue" points="220.41,-162.64 211.54,-168.44 222.09,-169.44 220.41,-162.64"/>
</g>
<!-- Node357&#45;&gt;Node280 -->
<g id="edge70" class="edge">
<title>Node357&#45;&gt;Node280</title>
<path fill="none" stroke="midnightblue" d="M148.03,-164.18C131.8,-156.23 111.73,-145.05 96,-132 75.45,-114.96 56.82,-89.29 47.78,-75.88"/>
<polygon fill="midnightblue" stroke="midnightblue" points="146.54,-167.35 157.08,-168.48 149.55,-161.03 146.54,-167.35"/>
</g>
<!-- Node357&#45;&gt;Node340 -->
<g id="edge71" class="edge">
<title>Node357&#45;&gt;Node340</title>
<path fill="none" stroke="midnightblue" d="M166.82,-159.27C161.53,-150.05 155.28,-139.17 151.02,-131.75"/>
<polygon fill="midnightblue" stroke="midnightblue" points="163.87,-161.15 171.88,-168.08 169.94,-157.67 163.87,-161.15"/>
</g>
</g>
</svg>
